<?xml version="1.0" encoding="utf-8"?>
<!-- Generator: Adobe Illustrator 19.2.1, SVG Export Plug-In . SVG Version: 6.00 Build 0)  -->
<svg version="1.1" id="Layer_1" xmlns="http://www.w3.org/2000/svg" xmlns:xlink="http://www.w3.org/1999/xlink" x="0px" y="0px"
	 viewBox="0 0 26 32" style="enable-background:new 0 0 26 32;" xml:space="preserve">
<style type="text/css">
	.st0{fill:#E99423;}
</style>
<g>
	<g>
		<path class="st0" d="M25.8,23.1L25.8,23.1c-0.4-0.2-4-1.8-4-6.1c0-3.5,2.7-5.4,3.2-5.8l0,0c0.1,0,0.1-0.1,0.1-0.2s0-0.1,0-0.2
			c-1.9-2.8-4.8-3.2-5.9-3.2c-0.2,0-0.3,0-0.5,0c-1.4,0-2.7,0.5-3.7,0.9C14.3,8.8,13.7,9,13.2,9s-1.1-0.3-1.8-0.5
			c-1-0.4-2.1-0.8-3.2-0.8H8.1c-2.7,0-5.3,1.6-6.7,4.1c-2.7,4.7-1,11.8,2,16.1c1.5,2.2,3,4.1,5,4.1h0.1c1,0,1.7-0.3,2.3-0.6
			c0.8-0.3,1.5-0.7,2.8-0.7c1.2,0,1.9,0.3,2.6,0.6s1.4,0.6,2.5,0.6c2.3,0,3.7-2.1,5-4c1.3-1.9,2-3.8,2.2-4.5l0,0
			C26,23.3,26,23.2,25.8,23.1z M12.9,7.8c0.1,0,0.2,0,0.3,0c1.6,0,3.3-0.9,4.5-2.3c1.3-1.6,2-3.5,1.8-5.3c0-0.1-0.1-0.2-0.3-0.2
			c-1.6,0.1-3.6,1.1-4.8,2.5c-1,1.2-2,3.1-1.7,5.1C12.7,7.7,12.8,7.8,12.9,7.8z"/>
	</g>
</g>
</svg>
