<?xml version="1.0" encoding="utf-8"?>
<!-- Generator: Adobe Illustrator 19.2.1, SVG Export Plug-In . SVG Version: 6.00 Build 0)  -->
<svg version="1.1" id="Layer_1" xmlns="http://www.w3.org/2000/svg" xmlns:xlink="http://www.w3.org/1999/xlink" x="0px" y="0px"
	 viewBox="0 0 94 94" style="enable-background:new 0 0 94 94;" xml:space="preserve">
<style type="text/css">
	.st0{fill:#F8F8F8;}
</style>
<g>
	<g>
		<g>
			<path class="st0" d="M47.1,92.1c-24.8,0-45-20.2-45-45s20.2-45,45-45s45,20.2,45,45S71.9,92.1,47.1,92.1z M47.1,4.1
				c-23.7,0-43,19.3-43,43s19.3,43,43,43s43-19.3,43-43S70.8,4.1,47.1,4.1z"/>
		</g>
	</g>
</g>
<path class="st0" d="M59.6,66.5v-2.8h8v-8h2.8v7.4c0,1.9-1.5,3.4-3.4,3.4H59.6z M27.1,66.5c-1.9,0-3.4-1.5-3.4-3.4v-7.4h2.8v8h8v2.8
	H27.1z M61.6,58.5V35.6h0.8v22.8C62.5,58.4,61.6,58.4,61.6,58.5z M55.6,58.5V35.6h2.8v22.8C58.4,58.4,55.6,58.4,55.6,58.5z
	 M49.6,58.5V35.6h0.8v22.8C50.4,58.4,49.6,58.4,49.6,58.5z M41.6,58.5V35.6h4.8v22.8C46.4,58.4,41.6,58.4,41.6,58.5z M37.6,58.5
	V35.6h0.8v22.8C38.4,58.4,37.6,58.4,37.6,58.5z M31.6,58.5V35.6h2.8v22.8C34.4,58.4,31.6,58.4,31.6,58.5z M67.6,38.5v-8h-8v-2.8H67
	c1.9,0,3.4,1.5,3.4,3.4v7.4C70.5,38.5,67.6,38.5,67.6,38.5z M23.7,38.5v-7.4c0-1.9,1.5-3.4,3.4-3.4h7.4v2.8h-8v8H23.7z"/>
</svg>
