<?xml version="1.0" encoding="utf-8"?>
<!-- Generator: Adobe Illustrator 19.2.1, SVG Export Plug-In . SVG Version: 6.00 Build 0)  -->
<svg version="1.1" id="Layer_1" xmlns="http://www.w3.org/2000/svg" xmlns:xlink="http://www.w3.org/1999/xlink" x="0px" y="0px"
	 viewBox="0 0 100 100" style="enable-background:new 0 0 100 100;" xml:space="preserve">
<style type="text/css">
	.st0{fill:none;stroke:#F8F8F8;stroke-width:2;stroke-miterlimit:10;}
	.st1{fill:#F8F8F8;}
</style>
<g>
	<g>
		<circle class="st0" cx="50.5" cy="50" r="44"/>
	</g>
</g>
<path class="st1" d="M63.1,69.4v-2.8h8v-8h2.8V66c0,1.9-1.5,3.4-3.4,3.4H63.1z M30.5,69.4c-1.9,0-3.4-1.5-3.4-3.4v-7.4h2.8v8h8v2.8
	H30.5z M65.1,61.4V38.6h0.8v22.8H65.1z M59.1,61.4V38.6h2.8v22.8H59.1z M53.1,61.4V38.6h0.8v22.8H53.1z M45.1,61.4V38.6h4.8v22.8
	H45.1z M41.1,61.4V38.6h0.8v22.8H41.1z M35.1,61.4V38.6h2.8v22.8H35.1z M71.1,41.4v-8h-8v-2.8h7.4c1.9,0,3.4,1.5,3.4,3.4v7.4H71.1z
	 M27.1,41.4V34c0-1.9,1.5-3.4,3.4-3.4h7.4v2.8h-8v8H27.1z"/>
</svg>
