<?xml version="1.0" encoding="utf-8"?>
<!-- Generator: Adobe Illustrator 19.2.1, SVG Export Plug-In . SVG Version: 6.00 Build 0)  -->
<svg version="1.1" id="Layer_1" xmlns="http://www.w3.org/2000/svg" xmlns:xlink="http://www.w3.org/1999/xlink" x="0px" y="0px"
	 viewBox="0 0 94 94" style="enable-background:new 0 0 94 94;" xml:space="preserve">
<style type="text/css">
	.st0{fill:#F8F8F8;}
</style>
<g id="Layer_1_1_">
	<path class="st0" d="M38.2,59.2c-2.8,0-5,2.2-5,5c0,2.8,2.2,5,5,5s5-2.2,5-5C43.2,61.4,41,59.2,38.2,59.2z M38.2,67.2
		c-1.6,0-3-1.4-3-3c0-1.6,1.4-3,3-3s3,1.4,3,3C41.2,65.8,39.8,67.2,38.2,67.2z"/>
	<path class="st0" d="M30.2,31.2l-1-5.2c0-0.4-0.6-0.8-1-0.8h-6c-0.6,0-1,0.4-1,1s0.4,1,1,1h5.2l4.8,24.4c0.6,3.2,3.6,5.6,6.8,5.6
		h23c0.6,0,1-0.4,1-1s-0.4-1-1-1H39.2c-1.6,0-3.2-0.8-4-2.2l29.2-4c0.4,0,0.8-0.4,0.8-0.8l4-16c0,0,0-0.4-0.2-0.6s-0.4-0.4-0.8-0.4
		C68.2,31.2,30.2,31.2,30.2,31.2z M63.4,47.2L34.2,51l-3.6-18h36.2L63.4,47.2z"/>
	<path class="st0" d="M58.2,59.2c-2.8,0-5,2.2-5,5c0,2.8,2.2,5,5,5s5-2.2,5-5C63.2,61.4,61,59.2,58.2,59.2z M58.2,67.2
		c-1.6,0-3-1.4-3-3c0-1.6,1.4-3,3-3s3,1.4,3,3C61.2,65.8,59.8,67.2,58.2,67.2z"/>
</g>
<g id="Layer_2">
	<g>
		<g>
			<g>
				<path class="st0" d="M47,92.2c-24.8,0-45-20.2-45-45s20.2-45,45-45s45,20.2,45,45S71.8,92.2,47,92.2z M47,4.2
					c-23.7,0-43,19.3-43,43s19.3,43,43,43s43-19.3,43-43S70.7,4.2,47,4.2z"/>
			</g>
		</g>
	</g>
</g>
</svg>
