<?xml version="1.0" encoding="utf-8"?>
<!-- Generator: Adobe Illustrator 19.2.1, SVG Export Plug-In . SVG Version: 6.00 Build 0)  -->
<svg version="1.1" id="Layer_1" xmlns="http://www.w3.org/2000/svg" xmlns:xlink="http://www.w3.org/1999/xlink" x="0px" y="0px"
	 viewBox="0 0 100 100" style="enable-background:new 0 0 100 100;" xml:space="preserve">
<style type="text/css">
	.st0{fill:none;stroke:#F8F8F8;stroke-width:2;stroke-miterlimit:10;}
	.st1{fill:#F8F8F8;}
</style>
<g>
	<g>
		<circle class="st0" cx="51.5" cy="52" r="44"/>
	</g>
</g>
<path class="st1" d="M42.5,64c-2.8,0-5,2.2-5,5c0,2.8,2.2,5,5,5c2.8,0,5-2.2,5-5S45.3,64,42.5,64z M42.5,72c-1.6,0-3-1.4-3-3
	s1.4-3,3-3c1.6,0,3,1.4,3,3S44.1,72,42.5,72z"/>
<path class="st1" d="M34.5,36l-1-5.2c0-0.4-0.6-0.8-1-0.8h-6c-0.6,0-1,0.4-1,1c0,0.6,0.4,1,1,1h5.2l4.8,24.4
	c0.6,3.2,3.6,5.6,6.8,5.6h23c0.6,0,1-0.4,1-1c0-0.6-0.4-1-1-1H43.5c-1.6,0-3.2-0.8-4-2.2l29.2-4c0.4,0,0.8-0.4,0.8-0.8l4-16
	c0,0,0-0.4-0.2-0.6c-0.2-0.2-0.4-0.4-0.8-0.4L34.5,36z M67.7,52l-29.2,3.8l-3.6-18h36.2L67.7,52z"/>
<path class="st1" d="M62.5,64c-2.8,0-5,2.2-5,5c0,2.8,2.2,5,5,5c2.8,0,5-2.2,5-5S65.3,64,62.5,64z M62.5,72c-1.6,0-3-1.4-3-3
	s1.4-3,3-3c1.6,0,3,1.4,3,3S64.1,72,62.5,72z"/>
</svg>
