<?xml version="1.0" encoding="utf-8"?>
<!-- Generator: Adobe Illustrator 19.2.1, SVG Export Plug-In . SVG Version: 6.00 Build 0)  -->
<svg version="1.1" id="Layer_1" xmlns="http://www.w3.org/2000/svg" xmlns:xlink="http://www.w3.org/1999/xlink" x="0px" y="0px"
	 viewBox="0 0 41 41" style="enable-background:new 0 0 41 41;" xml:space="preserve">
<style type="text/css">
	.st0{fill:#F8F8F8;}
</style>
<g>
	<g>
		<path class="st0" d="M20.5,0.5c-11,0-20,9-20,20s9,20,20,20s20-9,20-20S31.5,0.5,20.5,0.5z M20.5,37.7C11,37.7,3.3,30,3.3,20.5
			S11,3.3,20.5,3.3S37.7,11,37.7,20.5S30,37.7,20.5,37.7z M24.9,15.7l-6.5,6.5L16.2,20c-0.6-0.6-1.5-0.6-2,0c-0.6,0.6-0.6,1.5,0,2
			l3.2,3.2c0.3,0.3,0.6,0.4,1,0.4s0.7-0.1,1-0.4l7.5-7.5c0.6-0.6,0.6-1.5,0-2S25.4,15.2,24.9,15.7z"/>
	</g>
</g>
</svg>
