<?xml version="1.0" encoding="utf-8"?>
<!-- Generator: Adobe Illustrator 19.2.1, SVG Export Plug-In . SVG Version: 6.00 Build 0)  -->
<svg version="1.1" id="Layer_1" xmlns="http://www.w3.org/2000/svg" xmlns:xlink="http://www.w3.org/1999/xlink" x="0px" y="0px"
	 viewBox="0 0 48 48" style="enable-background:new 0 0 48 48;" xml:space="preserve">
<style type="text/css">
	.st0{fill:#F8F8F8;}
</style>
<g>
	<g>
		<path class="st0" d="M23.5,4c-11,0-20,9-20,20c0,11,9,20,20,20c11,0,20-9,20-20C43.5,13,34.5,4,23.5,4z M23.5,41.2
			C14,41.2,6.3,33.5,6.3,24c0-9.5,7.7-17.2,17.2-17.2c9.5,0,17.2,7.7,17.2,17.2C40.7,33.5,33,41.2,23.5,41.2z M27.9,19.2l-6.5,6.5
			l-2.2-2.2c-0.6-0.6-1.5-0.6-2,0c-0.6,0.6-0.6,1.5,0,2l3.2,3.2c0.3,0.3,0.6,0.4,1,0.4c0.4,0,0.7-0.1,1-0.4l7.5-7.5
			c0.6-0.6,0.6-1.5,0-2C29.3,18.7,28.4,18.7,27.9,19.2z"/>
	</g>
</g>
</svg>
