<?xml version="1.0" encoding="utf-8"?>
<!-- Generator: Adobe Illustrator 19.2.1, SVG Export Plug-In . SVG Version: 6.00 Build 0)  -->
<svg version="1.1" id="Layer_1" xmlns="http://www.w3.org/2000/svg" xmlns:xlink="http://www.w3.org/1999/xlink" x="0px" y="0px"
	 viewBox="0 0 94 94" style="enable-background:new 0 0 94 94;" xml:space="preserve">
<style type="text/css">
	.st0{fill:#F8F8F8;}
</style>
<g>
	<g>
		<g>
			<path class="st0" d="M47,92.1c-24.8,0-45-20.2-45-45s20.2-45,45-45s45,20.2,45,45S71.8,92.1,47,92.1z M47,4.1
				c-23.7,0-43,19.3-43,43s19.3,43,43,43s43-19.3,43-43S70.7,4.1,47,4.1z"/>
		</g>
	</g>
</g>
<path class="st0" d="M51.5,68.8c-2.1,0-4.1-0.7-5.7-2c-0.3-0.2-0.4-0.6-0.3-0.9c1.4-9.6,7.4-12.6,12.7-15.4c5.1-2.6,9.5-4.9,10.8-12
	c0.1-0.4,0.3-0.6,0.6-0.8c0.1-0.1,0.3-0.1,0.4-0.1c0.2,0,0.4,0.1,0.6,0.2c2.5,2.2,3.5,5.8,2.8,10c-0.9,4.5-3,8.8-6.1,12.2
	c-4.6,5.3-10.5,8.6-15.6,8.6L51.5,68.8z M70.3,41.5c-2,6.1-6.7,8.4-11.2,10.8c-4.9,2.5-10.1,5.1-11.5,13.1v0.2l0.2,0.1
	c1.1,0.7,2.5,1.1,3.8,1.1h0.2c4.5,0,10-3,14.1-7.8c2.8-3.1,4.8-7,5.6-11.2v-0.1c0.4-2.1,0.2-4.2-0.7-6.2l-0.3-0.7L70.3,41.5z"/>
<path class="st0" d="M36.4,63.9c-5.9,0-12.1-6.3-14.8-14.9c-1.5-4.4-1.7-9.1-0.7-13.6c1.1-4.2,3.4-7.1,6.6-8c0.1,0,0.2-0.1,0.3-0.1
	c0.3,0,0.5,0.1,0.7,0.3c6.1,5.5,5.6,11.4,5.1,17.1c-0.5,6-1,11.6,5.6,17.2c0.1,0.1,0.3,0.3,0.3,0.5c0.1,0.3,0.1,0.5-0.1,0.8
	c-0.1,0.2-0.3,0.4-0.6,0.5C38,63.7,37.2,63.9,36.4,63.9z M27.4,29.5c-2.1,1-3.7,3.2-4.5,6.4c-0.9,4.2-0.7,8.5,0.7,12.6
	c2.2,7.1,7.3,12.8,12,13.4l0.8,0.1l-0.6-0.6c-5.2-5.6-4.7-11.6-4.2-16.9c0.5-5.5,0.9-10.3-3.9-14.9l-0.1-0.1H27.4z"/>
<path class="st0" d="M42.6,63.6c-0.2,0-0.5-0.1-0.6-0.2c-1.7-1.5-2.7-3.5-2.9-5.7v-0.1v-0.1c-3.3-4.9-2.9-9.9-2.5-14.6
	c0.5-5.5,0.9-10.6-4.4-15.5c-0.1-0.1-0.2-0.3-0.3-0.4c-0.1-0.3-0.1-0.5,0.1-0.8c0.1-0.2,0.3-0.4,0.6-0.5c0.8-0.2,1.6-0.4,2.4-0.4
	c5.2,0,10.6,4.7,13.7,12l0.2,0.4l0.3-0.2c3.9-3.1,8.1-4.9,11.8-4.9h0.3c2.1,0,4.1,0.7,5.7,2c0.3,0.2,0.4,0.6,0.3,0.9
	c-1.4,8-6.7,10.7-11.8,13.3c-5.4,2.8-10.4,5.4-11.7,13.9c0,0.2-0.1,0.4-0.2,0.5C43.2,63.5,42.9,63.6,42.6,63.6L42.6,63.6z
	 M60.8,34.6c-4.5,0-10,3-14.1,7.8c-2.9,3.2-4.8,7.1-5.6,11.3c-0.4,2-0.2,4.1,0.5,6v-0.1l0.6,0.1c2-7.3,7.3-10,12-12.4l0.1-0.1
	c4.9-2.5,9.2-4.7,10.6-11.2v-0.2l-0.2-0.1C63.6,35,62.3,34.6,60.8,34.6L60.8,34.6z M38.5,43.3c-0.4,3-0.3,6,0.3,9h0.6
	c1-4.1,3-8,5.8-11.1c0.6-0.7,1.2-1.3,1.8-1.9l0.1-0.1L47,39c-2.5-6.5-7.1-11.2-11.5-11.6l-0.7-0.1l0.5,0.6
	c4.1,4.9,3.6,10.1,3.2,15.1V43.3z"/>
</svg>
