<?xml version="1.0" encoding="utf-8"?>
<!-- Generator: Adobe Illustrator 19.2.1, SVG Export Plug-In . SVG Version: 6.00 Build 0)  -->
<svg version="1.1" id="Layer_1" xmlns="http://www.w3.org/2000/svg" xmlns:xlink="http://www.w3.org/1999/xlink" x="0px" y="0px"
	 viewBox="0 0 100 100" style="enable-background:new 0 0 100 100;" xml:space="preserve">
<style type="text/css">
	.st0{fill:none;stroke:#F8F8F8;stroke-width:2;stroke-miterlimit:10;}
	.st1{fill:#F8F8F8;}
</style>
<g>
	<g>
		<circle class="st0" cx="51.5" cy="50" r="44"/>
	</g>
</g>
<path class="st1" d="M56,71.7c-2.1,0-4.1-0.7-5.7-2c-0.3-0.2-0.4-0.6-0.3-0.9c1.4-9.6,7.4-12.6,12.7-15.4c5.1-2.6,9.5-4.9,10.8-12
	c0.1-0.4,0.3-0.6,0.6-0.8c0.1-0.1,0.3-0.1,0.4-0.1c0.2,0,0.4,0.1,0.6,0.2c2.5,2.2,3.5,5.8,2.8,10c-0.9,4.5-3,8.8-6.1,12.2
	c-4.6,5.3-10.5,8.6-15.6,8.6L56,71.7z M74.8,44.4c-2,6.1-6.7,8.4-11.2,10.8c-4.9,2.5-10.1,5.1-11.5,13.1l0,0.2l0.2,0.1
	c1.1,0.7,2.5,1.1,3.8,1.1l0.2,0c4.5,0,10-3,14.1-7.8c2.8-3.1,4.8-7,5.6-11.2l0-0.1c0.4-2.1,0.2-4.2-0.7-6.2L75,43.7L74.8,44.4z"/>
<path class="st1" d="M40.9,66.8c-5.9,0-12.1-6.3-14.8-14.9c-1.5-4.4-1.7-9.1-0.7-13.6c1.1-4.2,3.4-7.1,6.6-8c0.1,0,0.2-0.1,0.3-0.1
	c0.3,0,0.5,0.1,0.7,0.3c6.1,5.5,5.6,11.4,5.1,17.1c-0.5,6-1,11.6,5.6,17.2c0.1,0.1,0.3,0.3,0.3,0.5c0.1,0.3,0.1,0.5-0.1,0.8
	c-0.1,0.2-0.3,0.4-0.6,0.5C42.5,66.6,41.7,66.8,40.9,66.8z M31.9,32.4c-2.1,1-3.7,3.2-4.5,6.4c-0.9,4.2-0.7,8.5,0.7,12.6
	c2.2,7.1,7.3,12.8,12,13.4l0.8,0.1l-0.6-0.6c-5.2-5.6-4.7-11.6-4.2-16.9c0.5-5.5,0.9-10.3-3.9-14.9l-0.1-0.1L31.9,32.4z"/>
<path class="st1" d="M47.1,66.5c-0.2,0-0.5-0.1-0.6-0.2c-1.7-1.5-2.7-3.5-2.9-5.7l0-0.1l0-0.1c-3.3-4.9-2.9-9.9-2.5-14.6
	c0.5-5.5,0.9-10.6-4.4-15.5c-0.1-0.1-0.2-0.3-0.3-0.4c-0.1-0.3-0.1-0.5,0.1-0.8c0.1-0.2,0.3-0.4,0.6-0.5c0.8-0.2,1.6-0.4,2.4-0.4
	c5.2,0,10.6,4.7,13.7,12l0.2,0.4l0.3-0.2c3.9-3.1,8.1-4.9,11.8-4.9l0.3,0c2.1,0,4.1,0.7,5.7,2c0.3,0.2,0.4,0.6,0.3,0.9
	c-1.4,8-6.7,10.7-11.8,13.3c-5.4,2.8-10.4,5.4-11.7,13.9c0,0.2-0.1,0.4-0.2,0.5C47.7,66.4,47.4,66.5,47.1,66.5L47.1,66.5z
	 M65.3,37.5c-4.5,0-10,3-14.1,7.8c-2.9,3.2-4.8,7.1-5.6,11.3c-0.4,2-0.2,4.1,0.5,6l0-0.1l0.6,0.1c2-7.3,7.3-10,12-12.4l0.1-0.1
	c4.9-2.5,9.2-4.7,10.6-11.2l0-0.2l-0.2-0.1c-1.1-0.7-2.4-1.1-3.8-1.1L65.3,37.5z M43,46.2c-0.4,3-0.3,6,0.3,9l0.6,0
	c1-4.1,3-8,5.8-11.1c0.6-0.7,1.2-1.3,1.8-1.9l0.1-0.1l-0.1-0.2C49,35.4,44.4,30.7,40,30.3l-0.7-0.1l0.5,0.6
	c4.1,4.9,3.6,10.1,3.2,15.1L43,46.2z"/>
</svg>
