<?xml version="1.0" encoding="utf-8"?>
<!-- Generator: Adobe Illustrator 19.2.1, SVG Export Plug-In . SVG Version: 6.00 Build 0)  -->
<svg version="1.1" id="Layer_1" xmlns="http://www.w3.org/2000/svg" xmlns:xlink="http://www.w3.org/1999/xlink" x="0px" y="0px"
	 viewBox="0 0 100 100" style="enable-background:new 0 0 100 100;" xml:space="preserve">
<style type="text/css">
	.st0{fill:#F8F8F8;}
	.st1{fill-rule:evenodd;clip-rule:evenodd;fill:none;stroke:#F8F8F8;stroke-width:2;stroke-miterlimit:10;}
</style>
<path class="st0" d="M33.2,62.4c-2.4,0-4.4-1.9-4.4-4.3v-3.3c0-11.4,6.4-21.8,16.7-27.1c0.2-0.1,0.3-0.1,0.5-0.1l0.8,0
	c1.8,0,6.4-0.1,10.8-0.1c8,0,9.4,0.1,9.6,0.2C77.4,33,83.8,43.4,83.8,54.9v3.3c0,2.4-2,4.3-4.4,4.3H33.2z M56.3,29.2
	c-3.4,0-9.3,0-9.9,0.4c-9.6,4.9-15.5,14.6-15.5,25.2v3.3c0,1.2,1,2.2,2.3,2.2h46.2c1.2,0,2.3-1,2.3-2.2v-3.3
	c0-10.7-5.9-20.3-15.5-25.2C65.5,29.3,60.5,29.2,56.3,29.2z"/>
<path class="st0" d="M22.8,55.9c-1.7,0-3.2-0.4-4.3-1.1c-1.9-1.2-2.9-3.4-2.9-6.5c0-10.1,19.8-13.9,20.7-14.1l1.2-0.2
	c0.1,0,0.1,0,0.2,0c0.5,0,0.9,0.4,1,0.8c0.1,0.3,0,0.5-0.2,0.8c-0.2,0.2-0.4,0.4-0.7,0.4l-1.2,0.2c-0.2,0-19,3.7-19,12.1
	c0,2.4,0.6,3.9,2,4.7c0.8,0.5,1.8,0.8,3.1,0.8c2.6,0,5.5-1,6.6-1.5c0.1-0.1,0.3-0.1,0.4-0.1c0.4,0,0.8,0.2,1,0.6
	c0.1,0.2,0.1,0.5,0,0.8c-0.1,0.3-0.3,0.5-0.6,0.6C29.7,54.5,26.2,55.9,22.8,55.9L22.8,55.9z"/>
<path class="st0" d="M24.9,74.4c-2.9,0-5.7-1.1-7.8-3.2l-3.7-3.7c-0.3-0.3-0.4-0.7-0.2-1.1c0.2-0.4,0.5-0.6,1-0.6h72.7
	c0.4,0,0.8,0.3,1,0.6c0.2,0.4,0.1,0.8-0.2,1.1l-3.7,3.7c-2.1,2-4.8,3.2-7.8,3.2H24.9z M18.6,69.8c1.7,1.7,3.9,2.6,6.3,2.6h51.3
	c2.4,0,4.6-0.9,6.3-2.6l1.9-1.9H16.7L18.6,69.8z"/>
<path class="st1" d="M50.5,7c24.3,0,44,19.7,44,44s-19.7,44-44,44s-44-19.7-44-44S26.2,7,50.5,7z"/>
</svg>
