<?xml version="1.0" encoding="utf-8"?>
<!-- Generator: Adobe Illustrator 19.2.1, SVG Export Plug-In . SVG Version: 6.00 Build 0)  -->
<svg version="1.1" id="Layer_1" xmlns="http://www.w3.org/2000/svg" xmlns:xlink="http://www.w3.org/1999/xlink" x="0px" y="0px"
	 viewBox="0 0 94 94" style="enable-background:new 0 0 94 94;" xml:space="preserve">
<style type="text/css">
	.st0{fill:#F8F8F8;}
</style>
<path class="st0" d="M29.9,58.5c-2.4,0-4.4-1.9-4.4-4.3v-3.3c0-11.4,6.4-21.8,16.7-27.1c0.2-0.1,0.3-0.1,0.5-0.1h0.8
	c1.8,0,6.4-0.1,10.8-0.1c8,0,9.4,0.1,9.6,0.2C74.1,29.1,80.5,39.5,80.5,51v3.3c0,2.4-2,4.3-4.4,4.3L29.9,58.5L29.9,58.5z M53,25.3
	c-3.4,0-9.3,0-9.9,0.4c-9.6,4.9-15.5,14.6-15.5,25.2v3.3c0,1.2,1,2.2,2.3,2.2h46.2c1.2,0,2.3-1,2.3-2.2v-3.3
	c0-10.7-5.9-20.3-15.5-25.2C62.2,25.3,57.2,25.3,53,25.3z"/>
<path class="st0" d="M19.4,52c-1.7,0-3.2-0.4-4.3-1.1c-1.9-1.2-2.9-3.4-2.9-6.5c0-10.1,19.8-13.9,20.7-14.1l1.2-0.2
	c0.1,0,0.1,0,0.2,0c0.5,0,0.9,0.4,1,0.8c0.1,0.3,0,0.5-0.2,0.8c-0.2,0.2-0.4,0.4-0.7,0.4l-1.2,0.2c-0.2,0-19,3.7-19,12.1
	c0,2.4,0.6,3.9,2,4.7c0.8,0.5,1.8,0.8,3.1,0.8c2.6,0,5.5-1,6.6-1.5c0.1-0.1,0.3-0.1,0.4-0.1c0.4,0,0.8,0.2,1,0.6
	c0.1,0.2,0.1,0.5,0,0.8s-0.3,0.5-0.6,0.6C26.3,50.6,22.8,52,19.4,52L19.4,52z"/>
<path class="st0" d="M21.6,70.5c-2.9,0-5.7-1.1-7.8-3.2l-3.7-3.7c-0.3-0.3-0.4-0.7-0.2-1.1s0.5-0.6,1-0.6h72.7c0.4,0,0.8,0.3,1,0.6
	c0.2,0.4,0.1,0.8-0.2,1.1l-3.7,3.7c-2.1,2-4.8,3.2-7.8,3.2H21.6z M15.3,65.9c1.7,1.7,3.9,2.6,6.3,2.6h51.3c2.4,0,4.6-0.9,6.3-2.6
	l1.9-1.9H13.4L15.3,65.9z"/>
<g>
	<path class="st0" d="M47.2,92.2c-24.8,0-45-20.2-45-45s20.2-45,45-45s45,20.2,45,45S72,92.2,47.2,92.2z M47.2,4.2
		c-23.7,0-43,19.3-43,43s19.3,43,43,43s43-19.3,43-43S70.9,4.2,47.2,4.2z"/>
</g>
</svg>
