<?xml version="1.0" encoding="utf-8"?>
<!-- Generator: Adobe Illustrator 19.2.1, SVG Export Plug-In . SVG Version: 6.00 Build 0)  -->
<svg version="1.1" id="Layer_1" xmlns="http://www.w3.org/2000/svg" xmlns:xlink="http://www.w3.org/1999/xlink" x="0px" y="0px"
	 viewBox="0 0 200 200" style="enable-background:new 0 0 200 200;" xml:space="preserve">
<style type="text/css">
	.st0{fill-rule:evenodd;clip-rule:evenodd;fill:#F8F8F8;}
	.st1{fill-rule:evenodd;clip-rule:evenodd;fill:none;stroke:#F8F8F8;stroke-width:3;stroke-miterlimit:10;}
</style>
<g>
	<g>
		<path class="st0" d="M136.2,97.2c-2.3-2.4-5.6-3.9-9.2-3.9c-0.4,0-0.8,0-1.1,0.1c-0.8-5.3-3.3-10-6.9-13.5
			c-4.1-3.9-9.5-6.3-15.5-6.3c-4.4,0-8.5,1.3-11.9,3.5c-3.1,2-5.8,4.7-7.6,8c-0.6-0.2-1.2-0.4-1.9-0.5c-1.1-0.3-2.3-0.4-3.5-0.4
			c-4.8,0-9.2,2-12.4,5.3C63,92.6,61,97.1,61,102c0,4.9,2,9.4,5.1,12.7c3.2,3.3,7.5,5.3,12.4,5.3h16.7c0.9,0,1.7-0.8,1.7-1.8
			c0-1-0.8-1.8-1.7-1.8H78.5c-3.9,0-7.4-1.6-9.9-4.2c-2.5-2.6-4.1-6.2-4.1-10.2c0-3.9,1.6-7.5,4.1-10.2c2.5-2.6,6-4.2,9.9-4.2
			c1,0,1.9,0.1,2.8,0.3c0.9,0.2,1.8,0.5,2.6,0.9c0.9,0.4,1.8,0,2.3-0.9c1.6-3.3,4.1-6,7.1-7.9c2.9-1.8,6.4-2.9,10.1-2.9
			c5.1,0,9.7,2,13.1,5.3c3.5,3.3,5.7,7.9,6,13.1c0.1,1,0.9,1.7,1.9,1.7c0.1,0,0.2-0.1,0.4-0.1c0.3-0.1,0.7-0.2,1.1-0.2
			c0.3-0.1,0.7-0.1,1.1-0.1c2.6,0,5,1.1,6.7,2.9c1.7,1.7,2.8,4.2,2.8,6.9c0,2.7-1.1,5.1-2.8,6.9c-1.7,1.8-4.1,2.9-6.7,2.9h-21.2
			c-1,0-1.7,0.8-1.7,1.8c0,1,0.8,1.8,1.7,1.8H127c3.6,0,6.9-1.5,9.2-3.9c2.4-2.4,3.8-5.7,3.8-9.4C140,102.9,138.6,99.6,136.2,97.2z
			 M114.8,126.6l-12.5,12.8V105c0-1-0.8-1.8-1.7-1.8c-1,0-1.8,0.8-1.8,1.8v34.4l-12.5-12.8c-0.7-0.7-1.8-0.7-2.5,0
			c-0.7,0.7-0.7,1.8,0,2.5L99.3,145c0.7,0.7,1.8,0.7,2.5,0l15.5-15.9c0.7-0.7,0.7-1.8,0-2.5C116.6,125.9,115.5,125.9,114.8,126.6z"
			/>
	</g>
</g>
<path class="st1" d="M100,25.5c44.2,0,80,35.8,80,80c0,44.2-35.8,80-80,80c-44.2,0-80-35.8-80-80C20,61.3,55.8,25.5,100,25.5z"/>
</svg>
