<?xml version="1.0" encoding="utf-8"?>
<!-- Generator: Adobe Illustrator 19.2.1, SVG Export Plug-In . SVG Version: 6.00 Build 0)  -->
<svg version="1.1" id="Layer_1" xmlns="http://www.w3.org/2000/svg" xmlns:xlink="http://www.w3.org/1999/xlink" x="0px" y="0px"
	 viewBox="0 0 160 160" style="enable-background:new 0 0 160 160;" xml:space="preserve">
<style type="text/css">
	.st0{fill:#F8F8F8;}
</style>
<g>
	<g>
		<path class="st0" d="M114.6,72c-2.2-2.2-5.3-3.8-8.9-3.8c-0.3,0-0.7,0-1,0.2c-0.7-5.1-3.1-9.6-6.7-13c-3.9-3.8-9-6-14.8-6
			c-4.3,0-8.2,1.2-11.4,3.4c-2.9,1.9-5.5,4.4-7.3,7.7c-0.5-0.2-1.2-0.3-1.9-0.5c-1-0.3-2.2-0.3-3.4-0.3c-4.6,0-8.9,1.9-11.8,5.1
			c-3.1,2.9-4.9,7.3-4.9,11.9s1.9,9,4.9,12.1c3.1,3.1,7.2,5.1,11.8,5.1h16c0.9,0,1.7-0.7,1.7-1.7c0-1-0.7-1.7-1.7-1.7H59.5
			c-3.8,0-7-1.5-9.4-4.1s-3.9-6-3.9-9.7c0-3.8,1.5-7.2,3.9-9.7s5.8-4.1,9.4-4.1c1,0,1.9,0.2,2.7,0.3c0.9,0.2,1.7,0.5,2.6,0.9
			c0.9,0.3,1.7,0,2.2-0.9c1.5-3.1,3.9-5.8,6.8-7.5c2.7-1.7,6.1-2.7,9.7-2.7c4.9,0,9.2,1.9,12.5,5.1c3.4,3.1,5.5,7.5,5.8,12.5
			c0.2,1,0.9,1.7,1.9,1.7c0.2,0,0.2-0.2,0.3-0.2c0.3-0.2,0.7-0.2,1-0.2c0.3-0.2,0.7-0.2,1-0.2c2.6,0,4.8,1,6.5,2.7
			c1.7,1.7,2.7,4.1,2.7,6.7c0,2.6-1,4.9-2.7,6.7c-1.7,1.7-3.9,2.7-6.5,2.7H85.5c-1,0-1.7,0.7-1.7,1.7c0,1,0.7,1.7,1.7,1.7h20.3
			c3.4,0,6.7-1.4,8.9-3.8c2.2-2.2,3.6-5.5,3.6-9C118.2,77.4,116.9,74.4,114.6,72z M94.2,100.1l-11.9,12.3V79.5c0-1-0.7-1.7-1.7-1.7
			c-1,0-1.7,0.7-1.7,1.7v32.9l-11.9-12.3c-0.7-0.7-1.7-0.7-2.4,0s-0.7,1.7,0,2.4l14.8,15.2c0.7,0.7,1.7,0.7,2.4,0l14.8-15.2
			c0.7-0.7,0.7-1.7,0-2.4C95.9,99.5,94.8,99.5,94.2,100.1z"/>
	</g>
</g>
<g>
	<path class="st0" d="M80,158c-43,0-78-35-78-78S37,2,80,2s78,35,78,78S123,158,80,158z M80,4.9C38.5,4.9,4.9,38.5,4.9,80
		s33.6,75.1,75.1,75.1s75.1-33.6,75.1-75.1S121.5,4.9,80,4.9z"/>
</g>
</svg>
