<?xml version="1.0" encoding="utf-8"?>
<!-- Generator: Adobe Illustrator 19.2.1, SVG Export Plug-In . SVG Version: 6.00 Build 0)  -->
<svg version="1.1" id="Layer_1" xmlns="http://www.w3.org/2000/svg" xmlns:xlink="http://www.w3.org/1999/xlink" x="0px" y="0px"
	 viewBox="0 0 42 42" style="enable-background:new 0 0 42 42;" xml:space="preserve">
<style type="text/css">
	.st0{fill-rule:evenodd;clip-rule:evenodd;fill:#E99423;}
	.st1{fill-rule:evenodd;clip-rule:evenodd;fill:#F8F8F8;}
</style>
<path class="st0" d="M21.5,2c11,0,20,9,20,20s-9,20-20,20s-20-9-20-20S10.5,2,21.5,2z"/>
<g>
	<g>
		<path class="st1" d="M35.6,7.9C31.9,4.1,26.8,2,21.5,2C16.2,2,11.1,4.1,7.4,7.9C3.6,11.6,1.5,16.7,1.5,22c0,5.3,2.1,10.4,5.9,14.1
			c3.8,3.8,8.8,5.9,14.1,5.9c5.3,0,10.4-2.1,14.1-5.9c3.8-3.8,5.9-8.8,5.9-14.1C41.5,16.7,39.4,11.6,35.6,7.9z M34.8,35.3
			c-3.5,3.5-8.2,5.5-13.3,5.5c-5,0-9.7-1.9-13.3-5.5C4.7,31.7,2.8,27,2.8,22c0-5,2-9.7,5.5-13.3c3.5-3.5,8.3-5.5,13.3-5.5
			c5,0,9.7,2,13.3,5.5c3.5,3.5,5.5,8.2,5.5,13.3C40.2,27,38.3,31.7,34.8,35.3z M35.1,11c-0.2-0.3-0.6-0.3-0.9-0.1
			c-0.3,0.2-0.3,0.6-0.1,0.9c2.3,2.9,3.6,6.5,3.6,10.2c0,4.3-1.7,8.4-4.8,11.5c-3.1,3.1-7.1,4.8-11.5,4.8c-4,0-7.9-1.5-10.8-4.1
			c-0.3-0.2-0.7-0.2-0.9,0c-0.2,0.3-0.2,0.7,0,0.9c3.2,2.9,7.4,4.5,11.7,4.5c4.7,0,9.1-1.8,12.4-5.1C37.2,31.1,39,26.7,39,22
			C39,18,37.6,14.1,35.1,11z M5.2,22c0-9,7.3-16.3,16.3-16.3c4,0,7.9,1.5,10.8,4.1c0.3,0.2,0.7,0.2,0.9,0c0.2-0.3,0.2-0.7,0-0.9
			C30,6.1,25.8,4.5,21.5,4.5c-4.7,0-9.1,1.8-12.4,5.1C5.8,12.9,4,17.3,4,22c0,4,1.4,7.9,3.9,11c0.1,0.2,0.3,0.2,0.5,0.2
			c0.1,0,0.3,0,0.4-0.1c0.3-0.2,0.3-0.6,0.1-0.9C6.5,29.3,5.2,25.7,5.2,22z M18.5,17.9v-1.8h-7.3V29h7.3v-1.8h-5.2v-4h4.8v-1.8h-4.8
			v-3.5H18.5z M29.5,29H32V16.2h-1.9v6.7c0,0.5,0,1.1,0.1,2c0,0.8,0.1,1.3,0.1,1.5h-0.1l-6.3-10.2h-2.5V29h1.9v-6.7
			c0-0.9,0-1.9-0.1-3l0-0.6h0.1L29.5,29z"/>
	</g>
</g>
</svg>
