<?xml version="1.0" encoding="utf-8"?>
<!-- Generator: Adobe Illustrator 19.2.1, SVG Export Plug-In . SVG Version: 6.00 Build 0)  -->
<svg version="1.1" id="Layer_1" xmlns="http://www.w3.org/2000/svg" xmlns:xlink="http://www.w3.org/1999/xlink" x="0px" y="0px"
	 viewBox="0 0 42 42" style="enable-background:new 0 0 42 42;" xml:space="preserve">
<style type="text/css">
	.st0{fill:#F8F8F8;}
</style>
<g>
	<g>
		<path class="st0" d="M18.4,31.3h4c0.3,0,0.6-0.3,0.6-0.6v-9.1h2.1c0.3,0,0.6-0.2,0.6-0.6l0.4-3.4c0-0.2,0-0.4-0.2-0.5
			C25.8,17,25.7,17,25.5,17h-2.4v-1.4c0-0.3,0.1-0.3,0.2-0.3h2.2c0.3,0,0.6-0.3,0.6-0.6v-3.3c0-0.3-0.3-0.6-0.6-0.6h-3
			c-2.1,0-3.2,0.9-3.8,1.7c-0.8,1.1-0.9,2.3-0.9,3V17h-1.3c-0.3,0-0.6,0.3-0.6,0.6V21c0,0.3,0.3,0.6,0.6,0.6h1.3v9.1
			C17.8,31,18.1,31.3,18.4,31.3z M17.1,20.4v-2.2h1.3c0.3,0,0.6-0.3,0.6-0.6v-2.2c0-0.4,0.1-1.4,0.7-2.3c0.6-0.8,1.5-1.2,2.8-1.2
			h2.4V14h-1.5c-0.7,0-1.5,0.5-1.5,1.6v2c0,0.3,0.3,0.6,0.6,0.6h2.4l-0.2,2.2h-2.2c-0.3,0-0.6,0.3-0.6,0.6v9.1H19V21
			c0-0.3-0.3-0.6-0.6-0.6H17.1z M35.1,6.9C31.4,3.1,26.3,1,21,1S10.6,3.1,6.9,6.9S1,15.7,1,21s2.1,10.4,5.9,14.1
			C10.6,38.9,15.7,41,21,41s10.4-2.1,14.1-5.9C38.9,31.4,41,26.3,41,21S38.9,10.6,35.1,6.9z M34.3,34.3c-3.5,3.5-8.2,5.5-13.3,5.5
			c-5,0-9.7-2-13.3-5.5C4.2,30.7,2.3,26,2.3,21s2-9.7,5.5-13.3C11.3,4.2,16,2.3,21,2.3s9.7,2,13.3,5.5c3.5,3.5,5.5,8.3,5.5,13.3
			C39.8,26,37.8,30.7,34.3,34.3z M34.6,10c-0.2-0.3-0.6-0.3-0.9-0.1c-0.3,0.2-0.3,0.6-0.1,0.9c2.3,2.9,3.6,6.5,3.6,10.2
			c0,4.3-1.7,8.4-4.8,11.5s-7.2,4.8-11.5,4.8c-4,0-7.9-1.5-10.8-4.1c-0.3-0.2-0.7-0.2-0.9,0c-0.2,0.3-0.2,0.7,0,0.9
			c3.2,2.9,7.4,4.5,11.7,4.5c4.7,0,9.1-1.8,12.4-5.1s5.1-7.7,5.1-12.4C38.5,17,37.1,13.1,34.6,10z M4.8,21C4.8,12,12,4.8,21,4.8
			c4,0,7.9,1.5,10.8,4.1c0.3,0.2,0.7,0.2,0.9,0c0.2-0.3,0.2-0.7,0-0.9C29.5,5.1,25.3,3.5,21,3.5c-4.7,0-9.1,1.8-12.4,5.1
			S3.5,16.3,3.5,21c0,4,1.4,7.9,3.9,11c0.1,0.2,0.3,0.2,0.5,0.2c0.1,0,0.3,0,0.4-0.1c0.3-0.2,0.3-0.6,0.1-0.9
			C6,28.4,4.8,24.7,4.8,21z"/>
	</g>
</g>
</svg>
