<?xml version="1.0" encoding="utf-8"?>
<!-- Generator: Adobe Illustrator 19.2.1, SVG Export Plug-In . SVG Version: 6.00 Build 0)  -->
<svg version="1.1" id="Layer_1" xmlns="http://www.w3.org/2000/svg" xmlns:xlink="http://www.w3.org/1999/xlink" x="0px" y="0px"
	 viewBox="0 0 42 42" style="enable-background:new 0 0 42 42;" xml:space="preserve">
<style type="text/css">
	.st0{fill:#F8F8F8;}
	.st1{fill:#425F9C;stroke:#F8F8F8;stroke-miterlimit:10;}
</style>
<g>
	<g>
		<path class="st0" d="M35.1,5.9C31.4,2.1,26.3,0,21,0C15.7,0,10.6,2.1,6.9,5.9C3.1,9.6,1,14.7,1,20c0,5.3,2.1,10.4,5.9,14.1
			C10.6,37.9,15.7,40,21,40c5.3,0,10.4-2.1,14.1-5.9C38.9,30.4,41,25.3,41,20C41,14.7,38.9,9.6,35.1,5.9z M34.3,33.3
			c-3.5,3.5-8.2,5.5-13.3,5.5c-5,0-9.7-2-13.3-5.5C4.2,29.7,2.2,25,2.2,20c0-5,2-9.7,5.5-13.3C11.3,3.2,16,1.3,21,1.3
			c5,0,9.7,2,13.3,5.5c3.5,3.5,5.5,8.3,5.5,13.3C39.7,25,37.8,29.7,34.3,33.3z M34.6,9c-0.2-0.3-0.6-0.3-0.9-0.1
			c-0.3,0.2-0.3,0.6-0.1,0.9c2.3,2.9,3.6,6.5,3.6,10.2c0,4.3-1.7,8.4-4.8,11.5c-3.1,3.1-7.2,4.8-11.5,4.8c-4,0-7.9-1.5-10.8-4.1
			c-0.3-0.2-0.7-0.2-0.9,0c-0.2,0.3-0.2,0.7,0,0.9c3.2,2.9,7.4,4.5,11.7,4.5c4.7,0,9.1-1.8,12.4-5.1c3.3-3.3,5.1-7.7,5.1-12.4
			C38.5,16,37.1,12.1,34.6,9z M4.7,20C4.7,11,12,3.8,21,3.8c4,0,7.9,1.5,10.8,4.1c0.3,0.2,0.7,0.2,0.9,0c0.2-0.3,0.2-0.7,0-0.9
			C29.5,4.1,25.3,2.5,21,2.5c-4.7,0-9.1,1.8-12.4,5.1C5.3,10.9,3.5,15.3,3.5,20c0,4,1.4,7.9,3.9,11c0.1,0.2,0.3,0.2,0.5,0.2
			c0.1,0,0.3,0,0.4-0.1c0.3-0.2,0.3-0.6,0.1-0.9C6,27.4,4.7,23.7,4.7,20z"/>
	</g>
</g>
<path class="st1" d="M18.4,30.3h4c0.3,0,0.6-0.3,0.6-0.6v-9.1h2.1c0.3,0,0.6-0.2,0.6-0.6l0.4-3.4c0-0.2,0-0.4-0.2-0.5
	C25.8,16,25.7,16,25.5,16h-2.4v-1.4c0-0.3,0.1-0.3,0.2-0.3h2.2c0.3,0,0.6-0.3,0.6-0.6v-3.3c0-0.3-0.3-0.6-0.6-0.6l-3,0
	c-2.1,0-3.2,0.9-3.8,1.7c-0.8,1.1-0.9,2.3-0.9,3V16h-1.3c-0.3,0-0.6,0.3-0.6,0.6V20c0,0.3,0.3,0.6,0.6,0.6h1.3v9.1
	C17.8,30,18.1,30.3,18.4,30.3z"/>
</svg>
