<?xml version="1.0" encoding="utf-8"?>
<!-- Generator: Adobe Illustrator 19.2.1, SVG Export Plug-In . SVG Version: 6.00 Build 0)  -->
<svg version="1.1" id="Layer_1" xmlns="http://www.w3.org/2000/svg" xmlns:xlink="http://www.w3.org/1999/xlink" x="0px" y="0px"
	 viewBox="0 0 42 42" style="enable-background:new 0 0 42 42;" xml:space="preserve">
<style type="text/css">
	.st0{fill-rule:evenodd;clip-rule:evenodd;fill:#DC4537;}
	.st1{fill-rule:evenodd;clip-rule:evenodd;fill:#F8F8F8;}
</style>
<path class="st0" d="M16.4,13.2l8.5-0.4l-1.5,2.1l-0.1,0.9v1.8l-1,2.7L21.3,21l-0.3,1l0.4,1l1.2,0.6l1.2,1.8l0.4,3.7L21,32.1
	l-2.1,0.3H17L15,31.9l-1.8-0.7L12.3,30l-0.6-1.5l0.1-1.5l0.6-1.2l1.3-0.9l1.9-0.9l1-0.6l0.6-0.6l-0.3-0.5l-1.3-0.4l-1.5-1l-1.2-2.1
	l-0.3-2.1l1-1.9L16.4,13.2l0.6,1.6L15.8,17l0.7,1.6l0.7,1l0.9,0.7l0.7,1c0,0,0.1,0.3,0.1,0.7c0,0.4,0,0.9,0,0.9l-0.1,1.1l-0.3,1.2
	L16.2,26l-1.3,1.3l0.3,1.3l1.3,1.6l2.4,0.2l1.5-0.6l1.2-1.5V27l-0.7-1L19,25.4l-0.3,0.1l-0.1-0.1c0,0,0.2-0.6,0.3-1.3
	c0.1-0.3,0.1-0.6,0.1-1c0.1-0.8-0.1-1.6-0.1-1.6l-0.7-1h0.6l1-0.7l0.4-1.5l-0.1-1.3l-0.7-1.2l-0.9-0.4l-1-0.5L17,14.9L16.4,13.2z"/>
<g>
	<g>
		<path class="st1" d="M35.1,7.9C31.4,4.1,26.3,2,21,2C15.7,2,10.6,4.1,6.9,7.9S1,16.7,1,22c0,5.3,2.1,10.4,5.9,14.1
			C10.6,39.9,15.7,42,21,42c5.3,0,10.4-2.1,14.1-5.9C38.9,32.4,41,27.3,41,22C41,16.7,38.9,11.6,35.1,7.9z M34.3,35.3
			c-3.5,3.5-8.2,5.5-13.3,5.5c-5,0-9.7-2-13.3-5.5C4.2,31.7,2.2,27,2.2,22c0-5,2-9.7,5.5-13.3C11.3,5.2,16,3.2,21,3.2
			c5,0,9.7,2,13.3,5.5c3.5,3.5,5.5,8.2,5.5,13.3C39.7,27,37.8,31.7,34.3,35.3z M34.6,11c-0.2-0.3-0.6-0.3-0.9-0.1
			c-0.3,0.2-0.3,0.6-0.1,0.9c2.3,2.9,3.6,6.5,3.6,10.2c0,4.3-1.7,8.4-4.8,11.5c-3.1,3.1-7.2,4.8-11.5,4.8c-4,0-7.9-1.5-10.8-4.1
			c-0.3-0.2-0.7-0.2-0.9,0c-0.2,0.3-0.2,0.7,0,0.9c3.2,2.9,7.4,4.5,11.7,4.5c4.7,0,9.1-1.8,12.4-5.1c3.3-3.3,5.1-7.7,5.1-12.4
			C38.5,18,37.1,14.1,34.6,11z M4.7,22C4.7,13,12,5.8,21,5.8c4,0,7.9,1.5,10.8,4.1c0.3,0.2,0.7,0.2,0.9,0c0.2-0.3,0.2-0.7,0-0.9
			C29.5,6.1,25.3,4.5,21,4.5c-4.7,0-9.1,1.8-12.4,5.1C5.3,12.9,3.5,17.3,3.5,22c0,4,1.4,7.9,3.9,11c0.1,0.2,0.3,0.2,0.5,0.2
			c0.1,0,0.3,0,0.4-0.1c0.3-0.2,0.3-0.6,0.1-0.9C6,29.4,4.7,25.7,4.7,22z M15.5,25.6c-0.8,0.6-1.2,1.4-1.2,2.2
			c0,0.9,0.4,1.7,1.2,2.2c0.7,0.5,1.7,0.8,2.7,0.8c1,0,2-0.3,2.7-0.8c0.8-0.6,1.2-1.4,1.2-2.2c0-0.9-0.4-1.7-1.2-2.2
			c-0.7-0.5-1.7-0.8-2.7-0.8C17.2,24.7,16.2,25,15.5,25.6z M20.9,27.8c0,1-1.2,1.8-2.7,1.8s-2.7-0.8-2.7-1.8c0-1,1.2-1.8,2.7-1.8
			S20.9,26.8,20.9,27.8z M25.9,12.4c-0.1-0.2-0.3-0.4-0.6-0.4h-6.8c-1.6,0-3.2,0.6-4.4,1.6c-1.2,1.1-1.9,2.5-1.9,3.9
			c0,2.8,1.7,4.9,4.3,5.3c0,0,0,0.1,0,0.1c-1.4,0.2-2.8,0.8-3.8,1.7c-1.1,1-1.8,2.4-1.8,3.7c0,2.7,3,4.6,7,4.6c3.4,0,7-2,7-5.4
			c0-2.1-0.6-3.3-2.6-4.8l-0.1-0.1c-0.5-0.4-0.8-0.6-0.9-0.8c0.1-0.1,0.2-0.2,0.6-0.5c1.4-1.1,2.1-2.4,2.1-3.9
			c0-0.9-0.2-1.7-0.5-2.4l2.2-2.1C25.9,12.9,26,12.7,25.9,12.4z M22.3,14.7c-0.2,0.2-0.3,0.6-0.1,0.8c0.4,0.6,0.6,1.3,0.6,2.1
			c0,1.1-0.5,2.1-1.6,2.9c-0.9,0.7-1.1,1-1.1,1.6c0,0.1,0,0.2,0,0.2c0.1,0.3,0.4,0.6,1.5,1.4l0.1,0.1c1.7,1.3,2.1,2,2.1,3.8
			c0,1.5-0.9,2.4-1.7,2.9c-1.1,0.7-2.5,1.1-4,1.1c-1.7,0-3.2-0.4-4.2-1c-0.7-0.4-1.5-1.2-1.5-2.3c0-2.4,2.6-4.1,5.1-4.2
			c0.2,0,0.4-0.1,0.5-0.3c-0.2,0.4,0.4-1.3-0.2-2c-0.1-0.1-0.3-0.2-0.5-0.2c-2.2-0.1-3.8-1.8-3.8-4.1c0-1.1,0.5-2.1,1.5-2.9
			c1-0.8,2.2-1.3,3.5-1.3h5.2L22.3,14.7z M16.5,14.4c-0.7,0.3-1.1,1-1.2,1.9c-0.1,0.8,0,1.6,0.4,2.4c1.8,3.6,4.7,1.5,3.9,1.9
			c1.3-0.7,1.6-2.6,0.8-4.3C19.7,14.8,18,13.6,16.5,14.4z M19.3,16.9c0.5,1,0.4,2.2-0.2,2.6c-0.6,0.3-1.6-0.3-2.2-1.4
			c-0.5-0.9-0.6-2.7,0.6-2.7c0.3,0,0.5,0.1,0.7,0.2C18.6,15.9,19,16.3,19.3,16.9z M29.1,21.1c0.4,0,0.6-0.3,0.6-0.7v-2.6h2.6
			c0.4,0,0.6-0.3,0.6-0.6c0-0.4-0.3-0.6-0.6-0.6h-2.6V14c0-0.4-0.3-0.7-0.6-0.7c-0.4,0-0.6,0.3-0.6,0.7v2.6h-2.6
			c-0.4,0-0.6,0.3-0.6,0.6c0,0.4,0.3,0.6,0.6,0.6h2.6v2.6C28.5,20.8,28.8,21.1,29.1,21.1z"/>
	</g>
</g>
</svg>
