<?xml version="1.0" encoding="utf-8"?>
<!-- Generator: Adobe Illustrator 19.2.1, SVG Export Plug-In . SVG Version: 6.00 Build 0)  -->
<svg version="1.1" id="Layer_1" xmlns="http://www.w3.org/2000/svg" xmlns:xlink="http://www.w3.org/1999/xlink" x="0px" y="0px"
	 viewBox="0 0 41 41" style="enable-background:new 0 0 41 41;" xml:space="preserve">
<style type="text/css">
	.st0{fill:#DC4537;}
	.st1{fill:#F8F8F8;}
</style>
<path class="st0" d="M15.9,11.8l8.5-0.4l-1.5,2.1l-0.1,0.9v1.8l-1,2.7l-1,0.7l-0.3,1l0.4,1l1.2,0.6l1.2,1.8l0.4,3.7l-3.2,3L18.4,31
	h-1.9l-2-0.5l-1.8-0.7l-0.9-1.2l-0.6-1.5l0.1-1.5l0.6-1.2l1.3-0.9l1.9-0.9l1-0.6l0.6-0.6l-0.3-0.5l-1.3-0.4l-1.5-1l-1.2-2.1
	l-0.3-2.1l1-1.9L15.9,11.8l0.6,1.6l-1.2,2.2l0.7,1.6l0.7,1l0.9,0.7l0.7,1c0,0,0.1,0.3,0.1,0.7c0,0.4,0,0.9,0,0.9l-0.1,1.1L18,23.8
	l-2.3,0.8l-1.3,1.3l0.3,1.3l1.3,1.6l2.4,0.2l1.5-0.6l1.2-1.5v-1.3l-0.7-1L18.5,24l-2.3,0.1L16.1,24c0,0,0.2-0.6,0.3-1.3
	c0.1-0.3,0.1-0.6,0.1-1c0.1-0.8-0.1-1.6-0.1-1.6l1.3-1h0.6l1-0.7l0.4-1.5l-0.1-1.3l-0.7-1.2L18,14l-1-0.5l-0.5,0L15.9,11.8z"/>
<g>
	<g>
		<path class="st1" d="M34.6,6.5c-3.7-3.8-8.8-5.9-14.1-5.9S10.1,2.7,6.4,6.5s-5.9,8.8-5.9,14.1S2.6,31,6.4,34.7
			c3.7,3.8,8.8,5.9,14.1,5.9s10.4-2.1,14.1-5.9c3.8-3.7,5.9-8.8,5.9-14.1S38.4,10.2,34.6,6.5z M33.8,33.9c-3.5,3.5-8.2,5.5-13.3,5.5
			c-5,0-9.7-2-13.3-5.5c-3.5-3.6-5.5-8.3-5.5-13.3s2-9.7,5.5-13.3c3.6-3.5,8.3-5.5,13.3-5.5s9.7,2,13.3,5.5
			c3.5,3.5,5.5,8.2,5.5,13.3C39.2,25.6,37.3,30.3,33.8,33.9z M34.1,9.6c-0.2-0.3-0.6-0.3-0.9-0.1c-0.3,0.2-0.3,0.6-0.1,0.9
			c2.3,2.9,3.6,6.5,3.6,10.2c0,4.3-1.7,8.4-4.8,11.5s-7.2,4.8-11.5,4.8c-4,0-7.9-1.5-10.8-4.1c-0.3-0.2-0.7-0.2-0.9,0
			c-0.2,0.3-0.2,0.7,0,0.9c3.2,2.9,7.4,4.5,11.7,4.5c4.7,0,9.1-1.8,12.4-5.1c3.3-3.3,5.1-7.7,5.1-12.4C38,16.6,36.6,12.7,34.1,9.6z
			 M4.2,20.6c0-9,7.3-16.2,16.3-16.2c4,0,7.9,1.5,10.8,4.1c0.3,0.2,0.7,0.2,0.9,0c0.2-0.3,0.2-0.7,0-0.9C29,4.7,24.8,3.1,20.5,3.1
			c-4.7,0-9.1,1.8-12.4,5.1S3,15.9,3,20.6c0,4,1.4,7.9,3.9,11c0.1,0.2,0.3,0.2,0.5,0.2c0.1,0,0.3,0,0.4-0.1c0.3-0.2,0.3-0.6,0.1-0.9
			C5.5,28,4.2,24.3,4.2,20.6z M15,24.2c-0.8,0.6-1.2,1.4-1.2,2.2c0,0.9,0.4,1.7,1.2,2.2c0.7,0.5,1.7,0.8,2.7,0.8s2-0.3,2.7-0.8
			c0.8-0.6,1.2-1.4,1.2-2.2c0-0.9-0.4-1.7-1.2-2.2c-0.7-0.5-1.7-0.8-2.7-0.8C16.7,23.3,15.7,23.6,15,24.2z M20.4,26.4
			c0,1-1.2,1.8-2.7,1.8S15,27.4,15,26.4s1.2-1.8,2.7-1.8S20.4,25.4,20.4,26.4z M25.4,11c-0.1-0.2-0.3-0.4-0.6-0.4H18
			c-1.6,0-3.2,0.6-4.4,1.6c-1.2,1.1-1.9,2.5-1.9,3.9c0,2.8,1.7,4.9,4.3,5.3v0.1c-1.4,0.2-2.8,0.8-3.8,1.7c-1.1,1-1.8,2.4-1.8,3.7
			c0,2.7,3,4.6,7,4.6c3.4,0,7-2,7-5.4c0-2.1-0.6-3.3-2.6-4.8l-0.1-0.1c-0.5-0.4-0.8-0.6-0.9-0.8c0.1-0.1,0.2-0.2,0.6-0.5
			c1.4-1.1,2.1-2.4,2.1-3.9c0-0.9-0.2-1.7-0.5-2.4l2.2-2.1C25.4,11.5,25.5,11.3,25.4,11z M21.8,13.3c-0.2,0.2-0.3,0.6-0.1,0.8
			c0.4,0.6,0.6,1.3,0.6,2.1c0,1.1-0.5,2.1-1.6,2.9c-0.9,0.7-1.1,1-1.1,1.6c0,0.1,0,0.2,0,0.2c0.1,0.3,0.4,0.6,1.5,1.4l0.1,0.1
			c1.7,1.3,2.1,2,2.1,3.8c0,1.5-0.9,2.4-1.7,2.9c-1.1,0.7-2.5,1.1-4,1.1c-1.7,0-3.2-0.4-4.2-1c-0.7-0.4-1.5-1.2-1.5-2.3
			c0-2.4,2.6-4.1,5.1-4.2c0.2,0,0.4-0.1,0.5-0.3c-0.2,0.4,0.4-1.3-0.2-2c-0.1-0.1-0.3-0.2-0.5-0.2c-2.2-0.1-3.8-1.8-3.8-4.1
			c0-1.1,0.5-2.1,1.5-2.9c1-0.8,2.2-1.3,3.5-1.3h5.2L21.8,13.3z M16,13c-0.7,0.3-1.1,1-1.2,1.9c-0.1,0.8,0,1.6,0.4,2.4
			c1.8,3.6,4.7,1.5,3.9,1.9c1.3-0.7,1.6-2.6,0.8-4.3C19.2,13.4,17.5,12.2,16,13z M18.8,15.5c0.5,1,0.4,2.2-0.2,2.6
			c-0.6,0.3-1.6-0.3-2.2-1.4C15.9,15.8,15.8,14,17,14c0.3,0,0.5,0.1,0.7,0.2C18.1,14.5,18.5,14.9,18.8,15.5z M28.6,19.7
			c0.4,0,0.6-0.3,0.6-0.7v-2.6h2.6c0.4,0,0.6-0.3,0.6-0.6c0-0.4-0.3-0.6-0.6-0.6h-2.6v-2.6c0-0.4-0.3-0.7-0.6-0.7
			c-0.4,0-0.6,0.3-0.6,0.7v2.6h-2.6c-0.4,0-0.6,0.3-0.6,0.6c0,0.4,0.3,0.6,0.6,0.6H28V19C28,19.4,28.3,19.7,28.6,19.7z"/>
	</g>
</g>
</svg>
