<?xml version="1.0" encoding="utf-8"?>
<!-- Generator: Adobe Illustrator 19.2.1, SVG Export Plug-In . SVG Version: 6.00 Build 0)  -->
<svg version="1.1" id="Layer_1" xmlns="http://www.w3.org/2000/svg" xmlns:xlink="http://www.w3.org/1999/xlink" x="0px" y="0px"
	 viewBox="0 0 48 48" style="enable-background:new 0 0 48 48;" xml:space="preserve">
<style type="text/css">
	.st0{fill:#E99423;}
</style>
<g>
	<g>
		<path class="st0" d="M31.4,16.6L14.9,7.5c-1.3-0.7-2.9-0.7-4.2,0l15.6,14.3L31.4,16.6z M9.1,9c-0.4,0.6-0.6,1.3-0.6,2.1v25.8
			c0,0.7,0.2,1.4,0.6,2l15.6-15.6L9.1,9z M38.4,20.4l-5-2.7l-5.6,5.6l6.9,6.3l3.7-2c1.3-0.7,2.1-2.1,2.1-3.5
			C40.5,22.5,39.7,21.2,38.4,20.4z M10.6,40.4c0.7,0.4,1.4,0.6,2.2,0.6c0.7,0,1.5-0.2,2.1-0.6l17.8-9.8l-6.4-5.9L10.6,40.4z"/>
	</g>
</g>
</svg>
