<?xml version="1.0" encoding="utf-8"?>
<!-- Generator: Adobe Illustrator 19.2.1, SVG Export Plug-In . SVG Version: 6.00 Build 0)  -->
<svg version="1.1" id="Layer_1" xmlns="http://www.w3.org/2000/svg" xmlns:xlink="http://www.w3.org/1999/xlink" x="0px" y="0px"
	 viewBox="0 0 35 35" style="enable-background:new 0 0 35 35;" xml:space="preserve">
<style type="text/css">
	.st0{fill:#E99423;}
</style>
<g>
	<g>
		<path class="st0" d="M24.4,10.1L7.9,1C6.6,0.3,5,0.3,3.7,1l15.6,14.3L24.4,10.1z M2.1,2.5C1.7,3.1,1.5,3.8,1.5,4.6v25.8
			c0,0.7,0.2,1.4,0.6,2l15.6-15.6L2.1,2.5z M31.4,13.9l-5-2.7l-5.6,5.6l6.9,6.3l3.7-2c1.3-0.7,2.1-2.1,2.1-3.5
			C33.5,16,32.7,14.7,31.4,13.9z M3.6,33.9c0.7,0.4,1.4,0.6,2.2,0.6c0.7,0,1.5-0.2,2.1-0.6l17.8-9.8l-6.4-5.9L3.6,33.9z"/>
	</g>
</g>
</svg>
