<?xml version="1.0" encoding="utf-8"?>
<!-- Generator: Adobe Illustrator 19.2.1, SVG Export Plug-In . SVG Version: 6.00 Build 0)  -->
<svg version="1.1" id="Layer_1" xmlns="http://www.w3.org/2000/svg" xmlns:xlink="http://www.w3.org/1999/xlink" x="0px" y="0px"
	 viewBox="0 0 42 42" style="enable-background:new 0 0 42 42;" xml:space="preserve">
<style type="text/css">
	.st0{fill:#F8F8F8;}
	.st1{fill:url(#SVGID_1_);stroke:#F8F8F8;stroke-miterlimit:10;}
</style>
<g>
	<g>
		<path class="st0" d="M35.6,7.9C31.9,4.1,26.8,2,21.5,2C16.2,2,11.1,4.1,7.4,7.9C3.6,11.6,1.5,16.7,1.5,22s2.1,10.4,5.9,14.1
			c3.8,3.8,8.8,5.9,14.1,5.9c5.3,0,10.4-2.1,14.1-5.9c3.8-3.8,5.9-8.8,5.9-14.1S39.4,11.6,35.6,7.9z M34.8,35.3
			c-3.5,3.5-8.2,5.5-13.3,5.5c-5,0-9.7-1.9-13.3-5.5C4.7,31.7,2.8,27,2.8,22c0-5,2-9.7,5.5-13.3c3.5-3.5,8.3-5.5,13.3-5.5
			c5,0,9.7,2,13.3,5.5c3.5,3.5,5.5,8.2,5.5,13.3C40.2,27,38.3,31.7,34.8,35.3z M35.1,11c-0.2-0.3-0.6-0.3-0.9-0.1
			c-0.3,0.2-0.3,0.6-0.1,0.9c2.3,2.9,3.6,6.5,3.6,10.2c0,4.3-1.7,8.4-4.8,11.5c-3.1,3.1-7.1,4.8-11.5,4.8c-4,0-7.9-1.5-10.8-4.1
			c-0.3-0.2-0.7-0.2-0.9,0c-0.2,0.3-0.2,0.7,0,0.9c3.2,2.9,7.4,4.5,11.7,4.5c4.7,0,9.1-1.8,12.4-5.1C37.2,31.1,39,26.7,39,22
			C39,18,37.6,14.1,35.1,11z M5.2,22c0-9,7.3-16.3,16.3-16.3c4,0,7.9,1.5,10.8,4.1c0.3,0.2,0.7,0.2,0.9,0c0.2-0.3,0.2-0.7,0-0.9
			C30,6.1,25.8,4.5,21.5,4.5c-4.7,0-9.1,1.8-12.4,5.1C5.8,12.9,4,17.3,4,22c0,4,1.4,7.9,3.9,11c0.1,0.2,0.3,0.2,0.5,0.2
			c0.1,0,0.3,0,0.4-0.1c0.3-0.2,0.3-0.6,0.1-0.9C6.5,29.4,5.2,25.7,5.2,22z"/>
	</g>
</g>
<linearGradient id="SVGID_1_" gradientUnits="userSpaceOnUse" x1="13.0371" y1="30.8034" x2="30.0015" y2="13.2362">
	<stop  offset="0" style="stop-color:#F8EC33"/>
	<stop  offset="0.4785" style="stop-color:#EE2C7B"/>
	<stop  offset="1" style="stop-color:#3B56A6"/>
</linearGradient>
<path class="st1" d="M26.8,12H16.3c-2.7,0-4.8,2.2-4.8,4.8v10.5c0,2.7,2.2,4.8,4.8,4.8h10.5c2.7,0,4.8-2.2,4.8-4.8V16.8
	C31.6,14.1,29.4,12,26.8,12z"/>
<path class="st0" d="M27.1,15.6c-0.4,0-0.8,0.3-0.8,0.8c0,0.4,0.3,0.8,0.8,0.8c0.4,0,0.8-0.3,0.8-0.8C27.9,16,27.6,15.6,27.1,15.6z"
	/>
<path class="st0" d="M21.5,17.1c-2.7,0-4.9,2.2-4.9,4.9s2.2,4.9,4.9,4.9c2.7,0,4.9-2.2,4.9-4.9S24.2,17.1,21.5,17.1z M21.5,25.7
	c-2,0-3.7-1.6-3.7-3.7c0-2,1.6-3.7,3.7-3.7s3.7,1.6,3.7,3.7C25.2,24,23.5,25.7,21.5,25.7z"/>
</svg>
