<?xml version="1.0" encoding="utf-8"?>
<!-- Generator: Adobe Illustrator 19.2.1, SVG Export Plug-In . SVG Version: 6.00 Build 0)  -->
<svg version="1.1" id="Layer_1" xmlns="http://www.w3.org/2000/svg" xmlns:xlink="http://www.w3.org/1999/xlink" x="0px" y="0px"
	 viewBox="0 0 41 41" style="enable-background:new 0 0 41 41;" xml:space="preserve">
<style type="text/css">
	.st0{fill:#F8F8F8;}
	.st1{fill:url(#SVGID_1_);stroke:#F8F8F8;stroke-miterlimit:10;}
</style>
<g>
	<g>
		<path class="st0" d="M34.6,6.4c-3.7-3.8-8.8-5.9-14.1-5.9S10.1,2.6,6.4,6.4c-3.8,3.7-5.9,8.8-5.9,14.1s2.1,10.4,5.9,14.1
			c3.8,3.8,8.8,5.9,14.1,5.9s10.4-2.1,14.1-5.9c3.8-3.8,5.9-8.8,5.9-14.1S38.4,10.1,34.6,6.4z M33.8,33.8c-3.5,3.5-8.2,5.5-13.3,5.5
			c-5,0-9.7-1.9-13.3-5.5c-3.5-3.6-5.4-8.3-5.4-13.3s2-9.7,5.5-13.3c3.5-3.5,8.3-5.5,13.3-5.5s9.7,2,13.3,5.5
			c3.5,3.5,5.5,8.2,5.5,13.3C39.2,25.5,37.3,30.2,33.8,33.8z M34.1,9.5c-0.2-0.3-0.6-0.3-0.9-0.1c-0.3,0.2-0.3,0.6-0.1,0.9
			c2.3,2.9,3.6,6.5,3.6,10.2c0,4.3-1.7,8.4-4.8,11.5s-7.1,4.8-11.5,4.8c-4,0-7.9-1.5-10.8-4.1c-0.3-0.2-0.7-0.2-0.9,0
			c-0.2,0.3-0.2,0.7,0,0.9c3.2,2.9,7.4,4.5,11.7,4.5c4.7,0,9.1-1.8,12.4-5.1c3.4-3.4,5.2-7.8,5.2-12.5C38,16.5,36.6,12.6,34.1,9.5z
			 M4.2,20.5c0-9,7.3-16.3,16.3-16.3c4,0,7.9,1.5,10.8,4.1c0.3,0.2,0.7,0.2,0.9,0c0.2-0.3,0.2-0.7,0-0.9C29,4.6,24.8,3,20.5,3
			c-4.7,0-9.1,1.8-12.4,5.1S3,15.8,3,20.5c0,4,1.4,7.9,3.9,11c0.1,0.2,0.3,0.2,0.5,0.2c0.1,0,0.3,0,0.4-0.1c0.3-0.2,0.3-0.6,0.1-0.9
			C5.5,27.9,4.2,24.2,4.2,20.5z"/>
	</g>
</g>
<linearGradient id="SVGID_1_" gradientUnits="userSpaceOnUse" x1="12.0592" y1="13.6575" x2="29.0236" y2="31.2247" gradientTransform="matrix(1 0 0 -1 0 43)">
	<stop  offset="0" style="stop-color:#F8EC33"/>
	<stop  offset="0.4785" style="stop-color:#EE2C7B"/>
	<stop  offset="1" style="stop-color:#3B56A6"/>
</linearGradient>
<path class="st1" d="M25.8,10.5H15.3c-2.7,0-4.8,2.2-4.8,4.8v10.5c0,2.7,2.2,4.8,4.8,4.8h10.5c2.7,0,4.8-2.2,4.8-4.8V15.3
	C30.6,12.6,28.4,10.5,25.8,10.5z"/>
<path class="st0" d="M26.1,14.1c-0.4,0-0.8,0.3-0.8,0.8c0,0.4,0.3,0.8,0.8,0.8c0.4,0,0.8-0.3,0.8-0.8C26.9,14.5,26.6,14.1,26.1,14.1
	z"/>
<path class="st0" d="M20.5,15.6c-2.7,0-4.9,2.2-4.9,4.9s2.2,4.9,4.9,4.9s4.9-2.2,4.9-4.9S23.2,15.6,20.5,15.6z M20.5,24.2
	c-2,0-3.7-1.6-3.7-3.7c0-2,1.6-3.7,3.7-3.7s3.7,1.6,3.7,3.7C24.2,22.5,22.5,24.2,20.5,24.2z"/>
</svg>
