<?xml version="1.0" encoding="utf-8"?>
<!-- Generator: Adobe Illustrator 19.2.1, SVG Export Plug-In . SVG Version: 6.00 Build 0)  -->
<svg version="1.1" id="Layer_1" xmlns="http://www.w3.org/2000/svg" xmlns:xlink="http://www.w3.org/1999/xlink" x="0px" y="0px"
	 viewBox="0 0 42 42" style="enable-background:new 0 0 42 42;" xml:space="preserve">
<style type="text/css">
	.st0{fill:#F8F8F8;}
</style>
<g>
	<g>
		<path class="st0" d="M35.1,5.9C31.4,2.1,26.3,0,21,0C15.7,0,10.6,2.1,6.9,5.9C3.1,9.6,1,14.7,1,20s2.1,10.4,5.9,14.1
			C10.6,37.9,15.7,40,21,40c5.3,0,10.4-2.1,14.1-5.9C38.9,30.4,41,25.3,41,20S38.9,9.6,35.1,5.9z M34.3,33.3
			c-3.5,3.5-8.2,5.5-13.3,5.5c-5,0-9.7-1.9-13.3-5.5C4.2,29.7,2.3,25,2.3,20c0-5,2-9.7,5.5-13.3C11.3,3.2,16,1.2,21,1.2
			c5,0,9.7,2,13.3,5.5c3.5,3.5,5.5,8.2,5.5,13.3C39.7,25,37.8,29.7,34.3,33.3z M34.6,9c-0.2-0.3-0.6-0.3-0.9-0.1
			c-0.3,0.2-0.3,0.6-0.1,0.9c2.3,2.9,3.6,6.5,3.6,10.2c0,4.3-1.7,8.4-4.8,11.5c-3.1,3.1-7.1,4.8-11.5,4.8c-4,0-7.9-1.5-10.8-4.1
			c-0.3-0.2-0.7-0.2-0.9,0c-0.2,0.3-0.2,0.7,0,0.9c3.2,2.9,7.4,4.5,11.7,4.5c4.7,0,9.1-1.8,12.4-5.1c3.3-3.3,5.1-7.7,5.1-12.4
			C38.5,16,37.1,12.1,34.6,9z M4.7,20C4.7,11,12,3.8,21,3.8c4,0,7.9,1.5,10.8,4.1c0.3,0.2,0.7,0.2,0.9,0c0.2-0.3,0.2-0.7,0-0.9
			C29.5,4.1,25.3,2.5,21,2.5c-4.7,0-9.1,1.8-12.4,5.1C5.3,10.9,3.5,15.3,3.5,20c0,4,1.4,7.9,3.9,11c0.1,0.2,0.3,0.2,0.5,0.2
			c0.1,0,0.3,0,0.4-0.1c0.3-0.2,0.3-0.6,0.1-0.9C6,27.4,4.7,23.7,4.7,20z M15.8,10c-2.7,0-4.8,2.2-4.8,4.8v10.5
			c0,2.7,2.2,4.8,4.8,4.8h10.5c2.7,0,4.8-2.2,4.8-4.8V14.8c0-2.7-2.2-4.8-4.8-4.8H15.8z M29.8,14.8v10.5c0,2-1.6,3.5-3.5,3.5H15.8
			c-2,0-3.5-1.6-3.5-3.5V14.8c0-2,1.6-3.5,3.5-3.5h10.5C28.2,11.2,29.8,12.8,29.8,14.8z M25.9,14.4c0,0.4,0.3,0.8,0.8,0.8
			c0.4,0,0.8-0.3,0.8-0.8c0-0.4-0.3-0.8-0.8-0.8C26.2,13.6,25.9,14,25.9,14.4z M21,15.1c-2.7,0-4.9,2.2-4.9,4.9
			c0,2.7,2.2,4.9,4.9,4.9c2.7,0,4.9-2.2,4.9-4.9C25.9,17.3,23.7,15.1,21,15.1z M21,23.7c-2,0-3.7-1.6-3.7-3.7c0-2,1.6-3.7,3.7-3.7
			s3.7,1.6,3.7,3.7C24.7,22,23,23.7,21,23.7z"/>
	</g>
</g>
</svg>
