<?xml version="1.0" encoding="utf-8"?>
<!-- Generator: Adobe Illustrator 19.2.1, SVG Export Plug-In . SVG Version: 6.00 Build 0)  -->
<svg version="1.1" id="Layer_1" xmlns="http://www.w3.org/2000/svg" xmlns:xlink="http://www.w3.org/1999/xlink" x="0px" y="0px"
	 viewBox="0 0 200 200" style="enable-background:new 0 0 200 200;" xml:space="preserve">
<style type="text/css">
	.st0{fill:#F8F8F8;}
	.st1{fill-rule:evenodd;clip-rule:evenodd;fill:none;stroke:#F8F8F8;stroke-width:3;stroke-miterlimit:10;}
</style>
<path class="st0" d="M89.1,129.7c-3,0-5.9-1.3-7.8-3.6l-0.5-0.6l-0.6,0.5c-1.3,1.2-3,1.8-4.8,1.8h-4.8c-4,0-7.2-3.2-7.2-7.1V93.3
	c0-3.9,3.2-7.1,7.2-7.1h4.8c1.8,0,3.6,0.7,4.9,2l0.3,0.3l1.9-0.6l0,0c1.4-0.4,12-4,12-13.5V61.6c0-0.8,0.5-1.5,1.3-1.7
	c0,0,1.9-0.6,4.3-0.6c2.6,0,4.7,0.6,6.4,1.9c2.8,2,4.2,5.5,4.2,10.3v11.3h16.2c5.4,0,9.8,4.4,9.8,9.7c0,0.5,0,1.1-0.1,1.7l-0.2,1.3
	l-3.9,24.3c-0.8,6.2-5.3,9.9-12.1,9.9H89.1z M100.1,62.9c-0.4,0-0.8,0-1.2,0.1L98.2,63v11.3c0,12.5-13.3,16.6-14.8,17.1l-1,0.3
	l0.1,0.7c0,0.4,0.1,0.7,0.1,0.9v26.3c0,3.6,2.9,6.5,6.6,6.5h31.3c5.1,0,7.9-2.3,8.5-6.7l0-0.1l0,0l4.1-25.6c0.1-0.5,0.1-0.8,0.1-1.2
	c0-3.4-2.7-6.1-6.1-6.1h-18.1c-1,0-1.8-0.8-1.8-1.8V71.4c0-3.5-0.9-6-2.7-7.3C103.3,63.3,101.8,62.9,100.1,62.9z M70.5,89.8
	c-2,0-3.5,1.6-3.5,3.5v27.4c0,1.9,1.6,3.5,3.5,3.5h4.8c2,0,3.5-1.6,3.5-3.5V93.3c0-1.9-1.6-3.5-3.5-3.5H70.5z"/>
<path class="st1" d="M100.5,17.5c44.2,0,80,35.8,80,80c0,44.2-35.8,80-80,80c-44.2,0-80-35.8-80-80C20.5,53.3,56.3,17.5,100.5,17.5z
	"/>
</svg>
