<?xml version="1.0" encoding="utf-8"?>
<!-- Generator: Adobe Illustrator 19.2.1, SVG Export Plug-In . SVG Version: 6.00 Build 0)  -->
<svg version="1.1" id="Layer_1" xmlns="http://www.w3.org/2000/svg" xmlns:xlink="http://www.w3.org/1999/xlink" x="0px" y="0px"
	 viewBox="0 0 94 94" style="enable-background:new 0 0 94 94;" xml:space="preserve">
<style type="text/css">
	.st0{fill:#F8F8F8;}
</style>
<g>
	<g>
		<path class="st0" d="M69.1,29.8c0.5,0,0.9-0.4,0.9-0.9V18.4c0-0.8-0.6-1.4-1.4-1.4H23.4c-0.8,0-1.4,0.6-1.4,1.4v57.1
			c0,0.8,0.6,1.4,1.4,1.4h45.1c0.8,0,1.4-0.6,1.4-1.4V34.3c0-0.5-0.4-0.9-0.9-0.9s-0.9,0.4-0.9,0.9v40.9H23.9V18.8h44.3v10.1
			C68.1,29.4,68.6,29.8,69.1,29.8z M63.5,69.7c0.4,0,0.8,0.4,0.8,0.8c0,0.5,0.4,0.9,0.9,0.9s0.9-0.4,0.9-0.9v-47
			c0-0.5-0.4-0.9-0.9-0.9s-0.9,0.4-0.9,0.9c0,0.4-0.4,0.8-0.8,0.8s-0.8-0.4-0.8-0.8s0.4-0.8,0.8-0.8c0.5,0,0.9-0.4,0.9-0.9
			s-0.4-0.9-0.9-0.9h-35c-0.5,0-0.9,0.4-0.9,0.9s0.4,0.9,0.9,0.9c0.4,0,0.8,0.4,0.8,0.8s-0.4,0.8-0.8,0.8c-0.4,0-0.8-0.4-0.8-0.8
			c0-0.5-0.4-0.9-0.9-0.9s-0.9,0.4-0.9,0.9v35.6c0,0.5,0.4,0.9,0.9,0.9s0.9-0.4,0.9-0.9v-33c0.3,0.1,0.5,0.1,0.8,0.1
			c1.5,0,2.7-1.2,2.7-2.7c0-0.3,0-0.6-0.1-0.8H61c-0.1,0.3-0.1,0.5-0.1,0.8c0,1.5,1.2,2.7,2.7,2.7c0.3,0,0.6,0,0.8-0.1V68
			c-0.3-0.1-0.5-0.1-0.8-0.1c-1.5,0-2.7,1.2-2.7,2.7c0,0.3,0,0.6,0.1,0.8H31.1c0.1-0.3,0.1-0.5,0.1-0.8c0-1.5-1.2-2.7-2.7-2.7
			c-0.3,0-0.6,0-0.8,0.1v-3.8c0-0.5-0.4-0.9-0.9-0.9s-0.9,0.4-0.9,0.9v6.3c0,0.5,0.4,0.9,0.9,0.9s0.9-0.4,0.9-0.9
			c0-0.4,0.4-0.8,0.8-0.8c0.4,0,0.8,0.4,0.8,0.8c0,0.4-0.4,0.8-0.8,0.8c-0.5,0-0.9,0.4-0.9,0.9s0.4,0.9,0.9,0.9h35
			c0.5,0,0.9-0.4,0.9-0.9s-0.4-0.9-0.9-0.9c-0.4,0-0.8-0.4-0.8-0.8C62.7,70,63,69.7,63.5,69.7z M38.4,51.9c0.5,0,0.9-0.4,0.9-0.9V41
			c0-0.4-0.3-0.8-0.7-0.9c-0.4-0.1-0.9,0.1-1,0.5l-2.2,5.1l-2.2-5.1c-0.2-0.4-0.6-0.6-1-0.5c-0.4,0.1-0.7,0.5-0.7,0.9v10
			c0,0.5,0.4,0.9,0.9,0.9c0.5,0,0.9-0.4,0.9-0.9v-5.6l1.3,3c0.1,0.3,0.5,0.6,0.8,0.6c0.4,0,0.7-0.2,0.8-0.6l1.3-3V51
			C37.4,51.5,37.8,51.9,38.4,51.9z M45.1,42c0.5,0,0.9-0.4,0.9-0.9s-0.4-0.9-0.9-0.9h-4.4c-0.5,0-0.9,0.4-0.9,0.9v10
			c0,0.5,0.4,0.9,0.9,0.9h4.4c0.5,0,0.9-0.4,0.9-0.9s-0.4-0.9-0.9-0.9h-3.5v-3.4h3.5c0.5,0,0.9-0.4,0.9-0.9S45.6,45,45.1,45h-3.5v-3
			H45.1z M48.4,51v-5.9l3,6.2c0.2,0.4,0.6,0.6,1,0.5s0.7-0.5,0.7-0.9V41c0-0.5-0.4-0.9-0.9-0.9s-0.9,0.4-0.9,0.9v5.8l-3-6.2
			c-0.2-0.4-0.6-0.6-1-0.5s-0.7,0.5-0.7,0.9v10c0,0.5,0.4,0.9,0.9,0.9S48.4,51.5,48.4,51z M54.7,40.1c-0.5,0-0.9,0.4-0.9,0.9v10
			c0,0.5,0.4,0.9,0.9,0.9h5.1c0.5,0,0.9-0.4,0.9-0.9V41c0-0.5-0.4-0.9-0.9-0.9s-0.9,0.4-0.9,0.9v9.1h-3.3V41
			C55.6,40.5,55.2,40.1,54.7,40.1z"/>
	</g>
</g>
<g>
	<path class="st0" d="M47,92C22.2,92,2,71.8,2,47C2,22.2,22.2,2,47,2s45,20.2,45,45C92,71.8,71.8,92,47,92z M47,4
		C23.3,4,4,23.3,4,47c0,23.7,19.3,43,43,43s43-19.3,43-43C90,23.3,70.7,4,47,4z"/>
</g>
</svg>
