<?xml version="1.0" encoding="utf-8"?>
<!-- Generator: Adobe Illustrator 19.2.1, SVG Export Plug-In . SVG Version: 6.00 Build 0)  -->
<svg version="1.1" id="Layer_1" xmlns="http://www.w3.org/2000/svg" xmlns:xlink="http://www.w3.org/1999/xlink" x="0px" y="0px"
	 viewBox="0 0 100 100" style="enable-background:new 0 0 100 100;" xml:space="preserve">
<style type="text/css">
	.st0{fill-rule:evenodd;clip-rule:evenodd;fill:#F8F8F8;}
	.st1{fill-rule:evenodd;clip-rule:evenodd;fill:none;stroke:#F8F8F8;stroke-width:2;stroke-miterlimit:10;}
</style>
<g>
	<g>
		<path class="st0" d="M73.6,32.8c0.5,0,0.9-0.4,0.9-0.9V21.4c0-0.8-0.6-1.4-1.4-1.4H27.9c-0.8,0-1.4,0.6-1.4,1.4v57.1
			c0,0.8,0.6,1.4,1.4,1.4h45.1c0.8,0,1.4-0.6,1.4-1.4V37.3c0-0.5-0.4-0.9-0.9-0.9c-0.5,0-0.9,0.4-0.9,0.9v40.9H28.4V21.8h44.3v10.1
			C72.6,32.4,73.1,32.8,73.6,32.8z M68,72.7c0.4,0,0.8,0.4,0.8,0.8c0,0.5,0.4,0.9,0.9,0.9c0.5,0,0.9-0.4,0.9-0.9v-47
			c0-0.5-0.4-0.9-0.9-0.9c-0.5,0-0.9,0.4-0.9,0.9c0,0.4-0.4,0.8-0.8,0.8c-0.4,0-0.8-0.4-0.8-0.8c0-0.4,0.4-0.8,0.8-0.8
			c0.5,0,0.9-0.4,0.9-0.9c0-0.5-0.4-0.9-0.9-0.9H33c-0.5,0-0.9,0.4-0.9,0.9c0,0.5,0.4,0.9,0.9,0.9c0.4,0,0.8,0.4,0.8,0.8
			c0,0.4-0.4,0.8-0.8,0.8c-0.4,0-0.8-0.4-0.8-0.8c0-0.5-0.4-0.9-0.9-0.9s-0.9,0.4-0.9,0.9v35.6c0,0.5,0.4,0.9,0.9,0.9
			s0.9-0.4,0.9-0.9V29.1c0.3,0.1,0.5,0.1,0.8,0.1c1.5,0,2.7-1.2,2.7-2.7c0-0.3,0-0.6-0.1-0.8h29.9c-0.1,0.3-0.1,0.5-0.1,0.8
			c0,1.5,1.2,2.7,2.7,2.7c0.3,0,0.6,0,0.8-0.1v41.9c-0.3-0.1-0.5-0.1-0.8-0.1c-1.5,0-2.7,1.2-2.7,2.7c0,0.3,0,0.6,0.1,0.8H35.6
			c0.1-0.3,0.1-0.5,0.1-0.8c0-1.5-1.2-2.7-2.7-2.7c-0.3,0-0.6,0-0.8,0.1v-3.8c0-0.5-0.4-0.9-0.9-0.9s-0.9,0.4-0.9,0.9v6.3
			c0,0.5,0.4,0.9,0.9,0.9s0.9-0.4,0.9-0.9c0-0.4,0.4-0.8,0.8-0.8c0.4,0,0.8,0.4,0.8,0.8c0,0.4-0.4,0.8-0.8,0.8
			c-0.5,0-0.9,0.4-0.9,0.9c0,0.5,0.4,0.9,0.9,0.9H68c0.5,0,0.9-0.4,0.9-0.9c0-0.5-0.4-0.9-0.9-0.9c-0.4,0-0.8-0.4-0.8-0.8
			C67.2,73,67.5,72.7,68,72.7z M42.9,54.9c0.5,0,0.9-0.4,0.9-0.9V44c0-0.4-0.3-0.8-0.7-0.9c-0.4-0.1-0.9,0.1-1,0.5l-2.2,5.1
			l-2.2-5.1c-0.2-0.4-0.6-0.6-1-0.5c-0.4,0.1-0.7,0.5-0.7,0.9v10c0,0.5,0.4,0.9,0.9,0.9c0.5,0,0.9-0.4,0.9-0.9v-5.6l1.3,3
			c0.1,0.3,0.5,0.6,0.8,0.6c0.4,0,0.7-0.2,0.8-0.6l1.3-3V54C41.9,54.5,42.3,54.9,42.9,54.9z M49.6,45c0.5,0,0.9-0.4,0.9-0.9
			s-0.4-0.9-0.9-0.9h-4.4c-0.5,0-0.9,0.4-0.9,0.9v10c0,0.5,0.4,0.9,0.9,0.9h4.4c0.5,0,0.9-0.4,0.9-0.9s-0.4-0.9-0.9-0.9h-3.5v-3.4
			h3.5c0.5,0,0.9-0.4,0.9-0.9c0-0.5-0.4-0.9-0.9-0.9h-3.5V45H49.6z M52.9,54v-5.9l3,6.2c0.2,0.4,0.6,0.6,1,0.5
			c0.4-0.1,0.7-0.5,0.7-0.9V44c0-0.5-0.4-0.9-0.9-0.9c-0.5,0-0.9,0.4-0.9,0.9v5.8l-3-6.2c-0.2-0.4-0.6-0.6-1-0.5
			c-0.4,0.1-0.7,0.5-0.7,0.9v10c0,0.5,0.4,0.9,0.9,0.9C52.5,54.9,52.9,54.5,52.9,54z M59.2,43.1c-0.5,0-0.9,0.4-0.9,0.9v10
			c0,0.5,0.4,0.9,0.9,0.9h5.1c0.5,0,0.9-0.4,0.9-0.9V44c0-0.5-0.4-0.9-0.9-0.9c-0.5,0-0.9,0.4-0.9,0.9v9.1h-3.3V44
			C60.1,43.5,59.7,43.1,59.2,43.1z"/>
	</g>
</g>
<path class="st1" d="M51.5,6c24.3,0,44,19.7,44,44s-19.7,44-44,44s-44-19.7-44-44S27.2,6,51.5,6z"/>
</svg>
