<?xml version="1.0" encoding="utf-8"?>
<!-- Generator: Adobe Illustrator 19.2.1, SVG Export Plug-In . SVG Version: 6.00 Build 0)  -->
<svg version="1.1" id="Layer_1" xmlns="http://www.w3.org/2000/svg" xmlns:xlink="http://www.w3.org/1999/xlink" x="0px" y="0px"
	 viewBox="0 0 160 160" style="enable-background:new 0 0 160 160;" xml:space="preserve">
<style type="text/css">
	.st0{fill:#F8F8F8;}
</style>
<g>
	<g>
		<g>
			<path class="st0" d="M80,159c-43.3,0-78.5-35.2-78.5-78.5S36.7,2,80,2s78.5,35.2,78.5,78.5S123.3,159,80,159z M80,4.9
				C38.3,4.9,4.4,38.8,4.4,80.5s33.9,75.6,75.6,75.6s75.6-33.9,75.6-75.6S121.7,4.9,80,4.9z"/>
		</g>
	</g>
</g>
<path class="st0" d="M112.9,110.6c-0.9-0.1-1.6-0.9-1.5-1.8c0.4-5.9-1.3-9.6-4.9-10.5c-14.1-3.6-19.1-8.4-20.7-11.8l-0.3-0.6
	l-0.7,0.2c-1.4,0.5-3.1,0.7-4.9,0.7h-0.6c-1.5,0-3-0.2-4.4-0.6L74.3,86L74,86.6c-1.7,3.4-6.7,8.1-20.6,11.6c-3.6,1-5.3,4.6-4.9,10.5
	c0.1,1-0.7,1.8-1.6,1.9h-0.1c-0.9,0-1.6-0.7-1.7-1.6c-0.6-7.6,2.2-12.8,7.5-14.2c12.7-3.2,16.9-7.3,18.2-9.5l0.4-0.7l-0.6-0.4
	c-1.1-0.7-2-1.5-2.9-2.5c-6.5-7.5-5.3-20.7-5.2-21.2c0.6-12.9,9.2-17.6,17-17.7h0.3c3.8,0.1,16.3,1.5,17,17.6
	c0.1,0.6,1.3,13.8-5.2,21.3c-0.7,0.9-1.5,1.5-2.5,2.2l-0.6,0.4l0.3,0.6c1.2,2.2,5.1,6.5,18.4,9.8c5.3,1.3,8.1,6.5,7.5,14.2
	C114.6,109.7,113.9,110.5,112.9,110.6L112.9,110.6L112.9,110.6z M79.6,46.3c-3.9,0-13.1,1.4-13.6,14.3c0,0.1,0,0.1,0,0.2
	c-0.2,2.1-0.8,12.7,4.4,18.5c2.3,2.6,5.3,3.9,9.2,3.9h0.8l0,0c3.7-0.2,6.5-1.4,8.7-3.9c5.7-6.5,4.4-18.5,4.4-18.6v-0.1
	c-0.8-12.8-9.9-14.4-13.8-14.4H79.6L79.6,46.3z"/>
</svg>
