<?xml version="1.0" encoding="utf-8"?>
<!-- Generator: Adobe Illustrator 19.2.1, SVG Export Plug-In . SVG Version: 6.00 Build 0)  -->
<svg version="1.1" id="Layer_1" xmlns="http://www.w3.org/2000/svg" xmlns:xlink="http://www.w3.org/1999/xlink" x="0px" y="0px"
	 viewBox="0 0 200 200" style="enable-background:new 0 0 200 200;" xml:space="preserve">
<style type="text/css">
	.st0{fill:none;stroke:#F8F8F8;stroke-width:3;stroke-miterlimit:10;}
	.st1{fill:#F8F8F8;}
</style>
<g>
	<g>
		<circle class="st0" cx="101.5" cy="104.5" r="80"/>
	</g>
</g>
<path class="st1" d="M135.7,135.7c-0.9-0.1-1.7-0.9-1.6-1.9c0.4-6.1-1.4-10-5.1-10.9c-14.6-3.7-19.8-8.7-21.5-12.2l-0.3-0.6
	l-0.7,0.2c-1.5,0.5-3.2,0.7-5.1,0.7h-0.6c-1.6,0-3.1-0.2-4.6-0.6l-0.6-0.2l-0.3,0.6c-1.8,3.5-7,8.4-21.4,12c-3.7,1-5.5,4.8-5.1,10.9
	c0.1,1-0.7,1.9-1.7,2l-0.1,0c-0.9,0-1.7-0.7-1.8-1.7c-0.6-7.9,2.3-13.3,7.8-14.7c13.2-3.3,17.5-7.6,18.9-9.9l0.4-0.7l-0.6-0.4
	c-1.1-0.7-2.1-1.6-3-2.6c-6.8-7.8-5.5-21.5-5.4-22c0.6-13.4,9.6-18.3,17.7-18.4h0.3c3.9,0.1,16.9,1.6,17.6,18.3
	c0.1,0.6,1.4,14.3-5.4,22.1c-0.7,0.9-1.6,1.6-2.6,2.3l-0.6,0.4l0.3,0.6c1.2,2.3,5.3,6.7,19.1,10.2c5.5,1.4,8.4,6.8,7.8,14.7
	c-0.1,0.9-0.8,1.7-1.8,1.7H135.7z M101.1,69C97,69,87.5,70.5,87,83.8c0,0.1,0,0.1,0,0.2c-0.2,2.2-0.8,13.2,4.6,19.2
	c2.4,2.7,5.5,4,9.6,4.1l0.8,0v0c3.8-0.2,6.7-1.5,9-4c5.9-6.7,4.6-19.2,4.6-19.3l0-0.1C114.8,70.6,105.3,69,101.3,69H101.1L101.1,69z
	"/>
</svg>
