<?xml version="1.0" encoding="utf-8"?>
<!-- Generator: Adobe Illustrator 19.2.1, SVG Export Plug-In . SVG Version: 6.00 Build 0)  -->
<svg version="1.1" id="Layer_1" xmlns="http://www.w3.org/2000/svg" xmlns:xlink="http://www.w3.org/1999/xlink" x="0px" y="0px"
	 viewBox="0 0 100 100" style="enable-background:new 0 0 100 100;" xml:space="preserve">
<style type="text/css">
	.st0{fill-rule:evenodd;clip-rule:evenodd;fill:#F8F8F8;}
	.st1{fill-rule:evenodd;clip-rule:evenodd;fill:none;stroke:#F8F8F8;stroke-width:2;stroke-miterlimit:10;}
</style>
<g>
	<g>
		<path class="st0" d="M60.3,57c2.4-3.1,3.8-7,3.8-11.2c0-10.4-8.4-18.8-18.8-18.8c-10.4,0-18.8,8.4-18.8,18.8
			c0,10.4,8.4,18.8,18.8,18.8c4.2,0,8.1-1.4,11.2-3.8L70.7,75l3.8-3.8L60.3,57z M45.3,62.8c-9.4,0-17-7.6-17-17c0-9.4,7.6-17,17-17
			c9.4,0,17,7.6,17,17C62.3,55.2,54.7,62.8,45.3,62.8z M70.7,72.5L57.9,59.7c0.1-0.1,0.3-0.3,0.4-0.4c0.2-0.2,0.3-0.3,0.5-0.5
			c0.1-0.1,0.3-0.3,0.4-0.4L72,71.2L70.7,72.5z"/>
	</g>
</g>
<path class="st1" d="M50.5,7c24.3,0,44,19.7,44,44s-19.7,44-44,44s-44-19.7-44-44S26.2,7,50.5,7z"/>
</svg>
