<?xml version="1.0" encoding="utf-8"?>
<!-- Generator: Adobe Illustrator 19.2.1, SVG Export Plug-In . SVG Version: 6.00 Build 0)  -->
<svg version="1.1" id="Layer_1" xmlns="http://www.w3.org/2000/svg" xmlns:xlink="http://www.w3.org/1999/xlink" x="0px" y="0px"
	 viewBox="0 0 330 60" style="enable-background:new 0 0 330 60;" xml:space="preserve">
<style type="text/css">
	.st0{fill:#FEE900;}
</style>
<g>
	<g>
		<path class="st0" d="M192.6,23L172,21.2L164,2l-8,19.2L135.4,23L151,36.6L146.3,57L164,46.2L181.7,57L177,36.6L192.6,23z
			 M106.6,21.2L98.5,2l-8,19.2L70,23l15.6,13.7L80.9,57l17.7-10.8L116.2,57l-4.7-20.3L127.1,23L106.6,21.2z M41.1,21.2L33.1,2
			l-8,19.2L4.5,23l15.6,13.7L15.4,57l17.7-10.8L50.7,57l-4.7-20.3L61.6,23L41.1,21.2z"/>
	</g>
</g>
<g>
	<path class="st0" d="M294.9,9.8l5.3,12.6l0.7,1.7l1.8,0.2l13.6,1.2l-10.3,9.1l-1.3,1.2l0.4,1.7l3.1,13.4l-11.6-7.1l-1.6-1l-1.6,1
		l-11.6,7.1l3.1-13.4l0.4-1.7l-1.3-1.2l-10.3-9.1l13.5-1.2L289,24l0.7-1.7L294.9,9.8 M294.9,2l-8,19.2L266.4,23L282,36.6L277.3,57
		l17.7-10.8L312.6,57l-4.7-20.3L323.5,23L303,21.2L294.9,2L294.9,2z"/>
</g>
<path class="st0" d="M229.5,2l-8,19.2L200.9,23l15.6,13.7L211.8,57l17.7-10.8"/>
<g>
	<path class="st0" d="M229.5,9.8l5.3,12.6l0.7,1.7l1.8,0.2l13.6,1.2l-10.3,9.1l-1.3,1.2l0.4,1.7l3.1,13.4L231,43.6l-1.6-1l-1.6,1
		l-11.6,7.1l3.1-13.4l0.4-1.7l-1.3-1.2l-10.3-9.1l13.5-1.2l1.8-0.2l0.7-1.7L229.5,9.8 M229.5,2l-8,19.2L200.9,23l15.6,13.7L211.8,57
		l17.7-10.8L247.1,57l-4.7-20.3L258,23l-20.5-1.8L229.5,2L229.5,2z"/>
</g>
</svg>
