<?xml version="1.0" encoding="utf-8"?>
<!-- Generator: Adobe Illustrator 19.2.1, SVG Export Plug-In . SVG Version: 6.00 Build 0)  -->
<svg version="1.1" id="Layer_1" xmlns="http://www.w3.org/2000/svg" xmlns:xlink="http://www.w3.org/1999/xlink" x="0px" y="0px"
	 viewBox="0 0 200 200" style="enable-background:new 0 0 200 200;" xml:space="preserve">
<style type="text/css">
	.st0{fill:#F8F8F8;}
	.st1{fill-rule:evenodd;clip-rule:evenodd;fill:none;stroke:#F8F8F8;stroke-width:3;stroke-miterlimit:10;}
</style>
<path class="st0" d="M119.2,136.9c-1.1,0-2.2-0.3-3.2-0.9l-15.5-9.7L85,136c-1,0.6-2.1,0.9-3.2,0.9c-1.9,0-3.7-0.9-4.8-2.4
	c-1.2-1.5-1.6-3.4-1.1-5.3l4.4-17.9L66.3,99.3c-1.9-1.6-2.6-4.2-1.9-6.7c0.8-2.4,2.9-4.1,5.4-4.3L88,87.1L94.8,70
	c0.9-2.3,3.2-3.9,5.7-3.9c2.5,0,4.7,1.5,5.7,3.8l6.9,17.1l18.2,1.3c2.5,0.2,4.6,1.9,5.4,4.3c0.8,2.4,0,5-1.9,6.7l-13.9,11.9
	l4.4,17.9c0.5,1.9,0.1,3.8-1.1,5.3C122.9,136,121.1,136.9,119.2,136.9z M100.5,70.2c-0.3,0-1.4,0.1-1.9,1.3l-7.4,18.3
	c-0.3,0.7-1,1.2-1.7,1.3L70,92.5c-0.9,0.1-1.6,0.6-1.8,1.4c-0.3,0.8,0,1.7,0.6,2.2l14.9,12.7c0.6,0.5,0.9,1.3,0.7,2.1l-4.7,19.2
	c-0.2,0.6,0,1.3,0.4,1.8c0.4,0.5,1,0.8,1.7,0.8c0.4,0,0.8-0.1,1.1-0.3L99.4,122c0.3-0.2,0.7-0.3,1.1-0.3c0.4,0,0.7,0.1,1.1,0.3
	l16.6,10.4c0.3,0.2,0.7,0.3,1.1,0.3c0.6,0,1.3-0.3,1.7-0.8c0.4-0.5,0.5-1.1,0.4-1.8l-4.7-19.2c-0.2-0.8,0.1-1.6,0.7-2.1l14.9-12.7
	c0.8-0.7,0.8-1.6,0.6-2.3c-0.1-0.3-0.5-1.3-1.8-1.4l-19.4-1.4c-0.8,0-1.4-0.5-1.7-1.3l-7.4-18.3C101.9,70.3,100.8,70.2,100.5,70.2z"
	/>
<path class="st1" d="M100.5,21.5c44.2,0,80,35.8,80,80c0,44.2-35.8,80-80,80c-44.2,0-80-35.8-80-80C20.5,57.3,56.3,21.5,100.5,21.5z
	"/>
</svg>
