<?xml version="1.0" encoding="utf-8"?>
<!-- Generator: Adobe Illustrator 19.2.1, SVG Export Plug-In . SVG Version: 6.00 Build 0)  -->
<svg version="1.1" id="Layer_1" xmlns="http://www.w3.org/2000/svg" xmlns:xlink="http://www.w3.org/1999/xlink" x="0px" y="0px"
	 viewBox="0 0 41 41" style="enable-background:new 0 0 41 41;" xml:space="preserve">
<style type="text/css">
	.st0{fill:#F8F8F8;}
	.st1{fill:#47BDED;stroke:#F8F8F8;stroke-miterlimit:10;}
</style>
<g>
	<g>
		<path class="st0" d="M34.6,6.4c-3.7-3.8-8.8-5.9-14.1-5.9S10.1,2.6,6.4,6.4c-3.8,3.7-5.9,8.8-5.9,14.1s2.1,10.4,5.9,14.1
			c3.8,3.8,8.8,5.9,14.1,5.9s10.4-2.1,14.1-5.9c3.8-3.8,5.9-8.8,5.9-14.1S38.4,10.1,34.6,6.4z M33.8,33.8c-3.5,3.5-8.2,5.5-13.3,5.5
			c-5,0-9.7-2-13.3-5.5c-3.5-3.6-5.5-8.3-5.5-13.3s2-9.7,5.5-13.3c3.5-3.5,8.3-5.5,13.3-5.5s9.7,2,13.3,5.5
			c3.5,3.5,5.5,8.2,5.5,13.3C39.2,25.5,37.3,30.2,33.8,33.8z M34.1,9.5c-0.2-0.3-0.6-0.3-0.9-0.1c-0.3,0.2-0.3,0.6-0.1,0.9
			c2.3,2.9,3.6,6.5,3.6,10.2c0,4.3-1.7,8.4-4.8,11.5s-7.2,4.8-11.5,4.8c-4,0-7.9-1.5-10.8-4.1c-0.3-0.2-0.7-0.2-0.9,0
			c-0.2,0.3-0.2,0.7,0,0.9c3.2,2.9,7.4,4.5,11.7,4.5c4.7,0,9.1-1.8,12.4-5.1c3.4-3.4,5.2-7.8,5.2-12.5C38,16.5,36.6,12.6,34.1,9.5z
			 M4.2,20.5c0-9,7.3-16.3,16.3-16.3c4,0,7.9,1.5,10.8,4.1c0.3,0.2,0.7,0.2,0.9,0c0.2-0.3,0.2-0.7,0-0.9C29,4.6,24.8,3,20.5,3
			c-4.7,0-9.1,1.8-12.4,5.1S3,15.8,3,20.5c0,4,1.4,7.9,3.9,11c0.1,0.2,0.3,0.2,0.5,0.2c0.1,0,0.3,0,0.4-0.1c0.3-0.2,0.3-0.6,0.1-0.9
			C5.5,27.9,4.2,24.2,4.2,20.5z"/>
	</g>
</g>
<path class="st1" d="M31.6,15.7c0.2-0.2,0.1-0.5,0-0.7c-0.2-0.2-0.5-0.3-0.7-0.2l0,0c0.1-0.3,0.3-0.5,0.4-0.8c0.1-0.2,0-0.5-0.2-0.7
	s-0.5-0.2-0.7,0c-0.6,0.4-1.3,0.6-2,0.8c-0.8-0.8-2-1.2-3.1-1.2c-2.5,0-4.6,2.1-4.6,4.6c0,0.1,0,0.1,0,0.2c-2.7-0.3-5.2-1.7-7-3.9
	c-0.1-0.2-0.3-0.2-0.5-0.2s-0.4,0.1-0.5,0.3c-0.4,0.7-0.6,1.5-0.6,2.3s0.2,1.5,0.6,2.2c-0.1,0-0.2,0-0.3,0.1
	c-0.2,0.1-0.3,0.3-0.3,0.5l0,0c0,1.4,0.6,2.6,1.6,3.5c0,0,0,0-0.1,0.1c-0.1,0.2-0.2,0.4-0.1,0.6c0.4,1.3,1.4,2.4,2.7,2.9
	c-1,0.5-2.1,0.8-3.3,0.8c-0.3,0-0.6,0-0.9,0c-0.3,0-0.6,0.1-0.7,0.4c-0.1,0.3,0,0.6,0.3,0.7c1.9,1.2,4.1,1.9,6.4,1.9
	c4.5,0,7.3-2.1,8.9-3.9c2-2.2,3.1-5.1,3.1-8c0-0.1,0-0.1,0-0.2C30.5,17.2,31.1,16.5,31.6,15.7z"/>
</svg>
