<?xml version="1.0" encoding="utf-8"?>
<!-- Generator: Adobe Illustrator 19.2.1, SVG Export Plug-In . SVG Version: 6.00 Build 0)  -->
<svg version="1.1" id="Layer_1" xmlns="http://www.w3.org/2000/svg" xmlns:xlink="http://www.w3.org/1999/xlink" x="0px" y="0px"
	 viewBox="0 0 42 42" style="enable-background:new 0 0 42 42;" xml:space="preserve">
<style type="text/css">
	.st0{fill:#F8F8F8;}
</style>
<g>
	<g>
		<path class="st0" d="M36.1,5.9C32.4,2.1,27.3,0,22,0C16.7,0,11.6,2.1,7.9,5.9C4.1,9.6,2,14.7,2,20c0,5.3,2.1,10.4,5.9,14.1
			C11.6,37.9,16.7,40,22,40c5.3,0,10.4-2.1,14.1-5.9C39.9,30.4,42,25.3,42,20C42,14.7,39.9,9.6,36.1,5.9z M35.3,33.3
			c-3.5,3.5-8.2,5.5-13.3,5.5c-5,0-9.7-2-13.3-5.5C5.2,29.7,3.3,25,3.3,20c0-5,2-9.7,5.5-13.3C12.3,3.2,17,1.3,22,1.3
			c5,0,9.7,2,13.3,5.5c3.5,3.5,5.5,8.3,5.5,13.3C40.8,25,38.8,29.7,35.3,33.3z M35.6,9c-0.2-0.3-0.6-0.3-0.9-0.1
			c-0.3,0.2-0.3,0.6-0.1,0.9c2.3,2.9,3.6,6.5,3.6,10.2c0,4.3-1.7,8.4-4.8,11.5c-3.1,3.1-7.1,4.8-11.5,4.8c-4,0-7.9-1.5-10.8-4.1
			c-0.3-0.2-0.7-0.2-0.9,0c-0.2,0.3-0.2,0.7,0,0.9c3.2,2.9,7.4,4.5,11.7,4.5c4.7,0,9.1-1.8,12.4-5.1s5.1-7.7,5.1-12.4
			C39.5,16,38.1,12.1,35.6,9z M5.7,20C5.7,11,13,3.8,22,3.8c4,0,7.9,1.5,10.8,4.1c0.3,0.2,0.7,0.2,0.9,0c0.2-0.3,0.2-0.7,0-0.9
			C30.5,4.1,26.3,2.5,22,2.5c-4.7,0-9.1,1.8-12.4,5.1C6.3,10.9,4.5,15.3,4.5,20c0,4,1.4,7.9,3.9,11c0.1,0.2,0.3,0.2,0.5,0.2
			c0.1,0,0.3,0,0.4-0.1c0.3-0.2,0.3-0.6,0.1-0.9C7,27.4,5.7,23.7,5.7,20z M10.6,14.2v8.3c0,1.5,0.4,2.6,1.3,3.5
			c0.9,0.8,2.1,1.3,3.7,1.3c1.1,0,2-0.2,2.8-0.6c0.8-0.4,1.4-0.9,1.8-1.6c0.4-0.7,0.6-1.5,0.6-2.5v-8.3h-2.1v8.1c0,2.1-1,3.1-3,3.1
			c-1,0-1.8-0.3-2.3-0.8c-0.5-0.5-0.7-1.3-0.7-2.3v-8.1H10.6z M27.3,14.1L22.4,27h2.2l1.3-3.6h4.9l1.3,3.6h2.2l-4.8-12.9H27.3z
			 M26.5,21.6l1.2-3.3c0.3-0.9,0.5-1.6,0.7-2.4c0.1,0.2,0.2,0.6,0.3,1.1c0.2,0.5,0.3,0.9,0.4,1.1l1.2,3.5H26.5z"/>
	</g>
</g>
</svg>
