<?xml version="1.0" encoding="utf-8"?>
<!-- Generator: Adobe Illustrator 19.2.1, SVG Export Plug-In . SVG Version: 6.00 Build 0)  -->
<svg version="1.1" id="Layer_1" xmlns="http://www.w3.org/2000/svg" xmlns:xlink="http://www.w3.org/1999/xlink" x="0px" y="0px"
	 viewBox="0 0 41 41" style="enable-background:new 0 0 41 41;" xml:space="preserve">
<style type="text/css">
	.st0{fill:#F8F8F8;}
</style>
<g>
	<g>
		<path class="st0" d="M34.6,6.4c-3.7-3.8-8.8-5.9-14.1-5.9S10.1,2.6,6.4,6.4s-5.9,8.8-5.9,14.1s2.1,10.4,5.9,14.1
			c3.7,3.8,8.8,5.9,14.1,5.9s10.4-2.1,14.1-5.9c3.8-3.7,5.9-8.8,5.9-14.1S38.4,10.1,34.6,6.4z M33.8,33.8c-3.5,3.5-8.2,5.5-13.3,5.5
			c-5,0-9.7-2-13.3-5.5c-3.5-3.6-5.5-8.3-5.5-13.3s2-9.7,5.5-13.3c3.6-3.5,8.3-5.5,13.3-5.5s9.7,2,13.3,5.5
			c3.5,3.5,5.5,8.2,5.5,13.3C39.2,25.5,37.3,30.2,33.8,33.8z M34.1,9.5c-0.2-0.3-0.6-0.3-0.9-0.1c-0.3,0.2-0.3,0.6-0.1,0.9
			c2.3,2.9,3.6,6.5,3.6,10.2c0,4.3-1.7,8.4-4.8,11.5s-7.2,4.8-11.5,4.8c-4,0-7.9-1.5-10.8-4.1c-0.3-0.2-0.7-0.2-0.9,0
			c-0.2,0.3-0.2,0.7,0,0.9c3.2,2.9,7.4,4.5,11.7,4.5c4.7,0,9.1-1.8,12.4-5.1s5.1-7.7,5.1-12.4C38,16.5,36.6,12.6,34.1,9.5z
			 M4.2,20.5c0-9,7.3-16.2,16.3-16.2c4,0,7.9,1.5,10.8,4.1c0.3,0.2,0.7,0.2,0.9,0c0.2-0.3,0.2-0.7,0-0.9C29,4.6,24.8,3,20.5,3
			c-4.7,0-9.1,1.8-12.4,5.1S3,15.8,3,20.5c0,4,1.4,7.9,3.9,11c0.1,0.2,0.3,0.2,0.5,0.2c0.1,0,0.3,0,0.4-0.1c0.3-0.2,0.3-0.6,0.1-0.9
			C5.5,27.9,4.2,24.2,4.2,20.5z M15.4,24.1c-0.8,0.6-1.2,1.3-1.2,2.2c0,0.8,0.4,1.6,1.2,2.2c0.7,0.5,1.7,0.8,2.7,0.8
			s1.9-0.3,2.7-0.8c0.8-0.6,1.2-1.3,1.2-2.2c0-0.8-0.4-1.6-1.2-2.2c-0.7-0.5-1.7-0.8-2.7-0.8S16.1,23.6,15.4,24.1z M20.6,26.2
			c0,0.9-1.2,1.7-2.6,1.7s-2.6-0.8-2.6-1.7c0-0.9,1.2-1.7,2.6-1.7S20.6,25.3,20.6,26.2z M25.5,11.4c-0.1-0.2-0.3-0.4-0.6-0.4h-6.6
			c-1.5,0-3.1,0.6-4.2,1.6c-1.2,1-1.9,2.4-1.9,3.8c0,2.7,1.7,4.7,4.2,5.1v0.1c-1.4,0.2-2.7,0.8-3.7,1.6c-1.1,1-1.7,2.3-1.7,3.6
			c0,2.6,2.9,4.4,6.8,4.4c3.3,0,6.8-1.9,6.8-5.2c0-2.1-0.6-3.2-2.5-4.6L22,21.3c-0.5-0.4-0.8-0.6-0.9-0.7c0.1-0.1,0.2-0.2,0.5-0.5
			c1.3-1,2-2.3,2-3.7c0-0.8-0.2-1.6-0.5-2.3l2.1-2C25.5,11.9,25.5,11.7,25.5,11.4z M22,13.6c-0.2,0.2-0.3,0.5-0.1,0.8
			c0.4,0.6,0.6,1.3,0.6,2.1c0,1-0.5,2-1.5,2.8c-0.9,0.7-1.1,1-1.1,1.6c0,0.1,0,0.1,0,0.2c0.1,0.3,0.4,0.6,1.4,1.4l0.1,0.1
			c1.6,1.2,2,1.9,2,3.6c0,1.4-0.9,2.3-1.7,2.8c-1,0.7-2.5,1.1-3.9,1.1c-1.6,0-3.1-0.3-4.1-1c-0.7-0.4-1.5-1.1-1.5-2.2
			c0-2.3,2.6-4,4.9-4.1c0.2,0,0.4-0.1,0.5-0.3c0.1-0.2,0.1-0.4,0-0.6s-0.1-0.3-0.1-0.5c0-0.1,0-0.2,0-0.3c0-0.2,0-0.4-0.1-0.5
			s-0.3-0.2-0.5-0.2c-2.2-0.1-3.6-1.7-3.6-3.9c0-1,0.5-2,1.4-2.8s2.2-1.3,3.4-1.3h5L22,13.6z M16.4,13.3c-0.6,0.3-1.1,1-1.2,1.8
			c-0.1,0.8,0,1.6,0.4,2.4c0.7,1.3,1.8,2.1,2.9,2.1c0.3,0,0.6-0.1,0.9-0.2c1.3-0.6,1.6-2.5,0.7-4.1c-0.4-0.8-1-1.4-1.6-1.7
			C17.8,13,17,13,16.4,13.3z M19.1,15.7c0.5,1,0.4,2.2-0.2,2.5s-1.6-0.3-2.1-1.3c-0.3-0.5-0.4-1.1-0.3-1.6c0-0.2,0.1-0.7,0.5-0.9
			c0.1-0.1,0.2-0.1,0.4-0.1c0.3,0,0.5,0.1,0.6,0.2C18.4,14.8,18.8,15.2,19.1,15.7z M28.6,19.8c0.3,0,0.6-0.3,0.6-0.6v-2.5h2.5
			c0.3,0,0.6-0.3,0.6-0.6c0-0.3-0.3-0.6-0.6-0.6h-2.5V13c0-0.3-0.3-0.6-0.6-0.6c-0.3,0-0.6,0.3-0.6,0.6v2.5h-2.5
			c-0.3,0-0.6,0.3-0.6,0.6c0,0.3,0.3,0.6,0.6,0.6H28v2.5C28,19.5,28.3,19.8,28.6,19.8z"/>
	</g>
</g>
</svg>
