<?xml version="1.0" encoding="utf-8"?>
<!-- Generator: Adobe Illustrator 19.2.1, SVG Export Plug-In . SVG Version: 6.00 Build 0)  -->
<svg version="1.1" id="Layer_1" xmlns="http://www.w3.org/2000/svg" xmlns:xlink="http://www.w3.org/1999/xlink" x="0px" y="0px"
	 viewBox="0 0 160 160" style="enable-background:new 0 0 160 160;" xml:space="preserve">
<style type="text/css">
	.st0{fill:#F8F8F8;}
</style>
<path class="st0" d="M69.2,110.7c-2.9,0-5.7-1.2-7.4-3.4l-0.7-0.5l-0.5,0.5c-1.2,1.2-2.9,1.7-4.6,1.7h-4.6c-3.8,0-6.9-3.1-6.9-6.7
	V76.1c0-3.8,3.1-6.7,6.9-6.7H56c1.7,0,3.4,0.7,4.6,1.9l0.3,0.3l1.9-0.5l0,0c1.4-0.3,11.5-3.8,11.5-12.9V45.7c0-0.7,0.5-1.4,1.2-1.5
	c0,0,1.9-0.5,4.1-0.5c2.4,0,4.5,0.5,6.2,1.9c2.7,1.9,3.9,5.3,3.9,9.8v10.8h15.4c5.1,0,9.4,4.1,9.4,9.3c0,0.5,0,1-0.2,1.5l-0.2,1.2
	l-3.8,23.1c-0.7,5.8-5,9.4-11.5,9.4H69.2z M79.7,47.1c-0.3,0-0.7,0-1.2,0.2h-0.7v10.8c0,12-12.7,15.8-14.1,16.3l-1,0.3l0.2,0.7
	c0,0.3,0.2,0.7,0.2,0.9v25c0,3.4,2.7,6.2,6.3,6.2h29.8c4.8,0,7.5-2.2,8.1-6.3v-0.2l0,0l3.9-24.3c0.2-0.5,0.2-0.7,0.2-1.2
	c0-3.3-2.6-5.8-5.8-5.8H88.1c-1,0-1.7-0.7-1.7-1.7V55.3c0-3.3-0.9-5.7-2.6-7C82.7,47.4,81.2,47.1,79.7,47.1z M51.4,72.6
	c-1.9,0-3.3,1.5-3.3,3.3v26.1c0,1.9,1.5,3.3,3.3,3.3H56c1.9,0,3.3-1.5,3.3-3.3V76.1c0-1.9-1.5-3.3-3.3-3.3h-4.6V72.6z"/>
<g>
	<path class="st0" d="M80,158c-43,0-78-35-78-78S37,2,80,2s78,35,78,78S123,158,80,158z M80,5.4C38.9,5.4,5.4,38.9,5.4,80
		s33.4,74.6,74.6,74.6s74.6-33.4,74.6-74.6S121.1,5.4,80,5.4z"/>
</g>
</svg>
