<?xml version="1.0" encoding="utf-8"?>
<!-- Generator: Adobe Illustrator 19.2.1, SVG Export Plug-In . SVG Version: 6.00 Build 0)  -->
<svg version="1.1" id="Layer_1" xmlns="http://www.w3.org/2000/svg" xmlns:xlink="http://www.w3.org/1999/xlink" x="0px" y="0px"
	 viewBox="0 0 94 94" style="enable-background:new 0 0 94 94;" xml:space="preserve">
<style type="text/css">
	.st0{fill:#F8F8F8;}
</style>
<g>
	<g>
		<path class="st0" d="M56.8,53c2.4-3.1,3.8-7,3.8-11.2c0-10.4-8.4-18.8-18.8-18.8S23,31.4,23,41.8s8.4,18.8,18.8,18.8
			c4.2,0,8.1-1.4,11.2-3.8L67.2,71l3.8-3.8L56.8,53z M41.8,58.8c-9.4,0-17-7.6-17-17s7.6-17,17-17s17,7.6,17,17S51.2,58.8,41.8,58.8
			z M67.2,68.5L54.4,55.7c0.1-0.1,0.3-0.3,0.4-0.4c0.2-0.2,0.3-0.3,0.5-0.5c0.1-0.1,0.3-0.3,0.4-0.4l12.8,12.8L67.2,68.5z"/>
	</g>
</g>
<g>
	<path class="st0" d="M47,92C22.2,92,2,71.8,2,47C2,22.2,22.2,2,47,2c24.8,0,45,20.2,45,45C92,71.8,71.8,92,47,92z M47,4
		C23.3,4,4,23.3,4,47c0,23.7,19.3,43,43,43c23.7,0,43-19.3,43-43C90,23.3,70.7,4,47,4z"/>
</g>
</svg>
