<?xml version="1.0" encoding="utf-8"?>
<!-- Generator: Adobe Illustrator 19.2.1, SVG Export Plug-In . SVG Version: 6.00 Build 0)  -->
<svg version="1.1" id="Layer_1" xmlns="http://www.w3.org/2000/svg" xmlns:xlink="http://www.w3.org/1999/xlink" x="0px" y="0px"
	 viewBox="0 0 330 60" style="enable-background:new 0 0 330 60;" xml:space="preserve">
<style type="text/css">
	.st0{fill:#FEE900;}
</style>
<g>
	<g>
		<path class="st0" d="M193.6,23.5L173,21.7l-8-19.2l-8,19.2l-20.6,1.8L152,37.1l-4.7,20.4L165,46.7l17.7,10.8L178,37.1L193.6,23.5z
			 M107.6,21.7L99.5,2.5l-8,19.2L71,23.5l15.6,13.7l-4.7,20.3l17.7-10.8l17.6,10.8l-4.7-20.3l15.6-13.7L107.6,21.7z M42.1,21.7
			l-8-19.2l-8,19.2L5.5,23.5l15.6,13.7l-4.7,20.3l17.7-10.8l17.6,10.8L47,37.2l15.6-13.7L42.1,21.7z"/>
	</g>
</g>
<g>
	<path class="st0" d="M295.9,10.3l5.3,12.6l0.7,1.7l1.8,0.2l13.6,1.2L307,35.1l-1.3,1.2l0.4,1.7l3.1,13.4l-11.6-7.1l-1.6-1l-1.6,1
		l-11.6,7.1l3.1-13.4l0.4-1.7l-1.3-1.2L274.7,26l13.5-1.2l1.8-0.3l0.7-1.7L295.9,10.3 M295.9,2.5l-8,19.2l-20.5,1.8L283,37.1
		l-4.7,20.4L296,46.7l17.6,10.8l-4.7-20.3l15.6-13.7L304,21.7L295.9,2.5L295.9,2.5z"/>
</g>
<path class="st0" d="M230.5,2.5l-8,19.2l-20.6,1.8l15.6,13.7l-4.7,20.3l17.7-10.8"/>
<g>
	<path class="st0" d="M230.5,10.3l5.3,12.6l0.7,1.7l1.8,0.2l13.6,1.2l-10.3,9.1l-1.3,1.2l0.4,1.7l3.1,13.4L232,44.1l-1.6-1l-1.6,1
		l-11.6,7.1l3.1-13.4l0.4-1.7l-1.3-1.2l-10.3-9.1l13.5-1.2l1.8-0.2l0.7-1.7L230.5,10.3 M230.5,2.5l-8,19.2l-20.6,1.8l15.6,13.7
		l-4.7,20.3l17.7-10.8l17.6,10.8l-4.7-20.3L259,23.5l-20.5-1.8L230.5,2.5L230.5,2.5z"/>
</g>
</svg>
