<?xml version="1.0" encoding="utf-8"?>
<!-- Generator: Adobe Illustrator 19.2.1, SVG Export Plug-In . SVG Version: 6.00 Build 0)  -->
<svg version="1.1" id="Layer_1" xmlns="http://www.w3.org/2000/svg" xmlns:xlink="http://www.w3.org/1999/xlink" x="0px" y="0px"
	 viewBox="0 0 160 160" style="enable-background:new 0 0 160 160;" xml:space="preserve">
<style type="text/css">
	.st0{fill:#F8F8F8;}
</style>
<path class="st0" d="M97.9,113.8c-1.1,0-2.1-0.3-3.1-0.9L80,103.7L65.2,113c-1,0.6-2,0.9-3.1,0.9c-1.8,0-3.5-0.9-4.6-2.3
	c-1.1-1.4-1.5-3.3-1.1-5.1l4.2-17.1L47.3,77.8c-1.8-1.5-2.5-4-1.8-6.4c0.8-2.3,2.8-3.9,5.2-4.1L68,66.2l6.5-16.4
	c0.9-2.2,3.1-3.7,5.5-3.7s4.5,1.4,5.5,3.6l6.6,16.4l17.4,1.2c2.4,0.2,4.4,1.8,5.2,4.1c0.8,2.3,0,4.8-1.8,6.4L99.5,89.2l4.2,17.1
	c0.5,1.8,0.1,3.6-1.1,5.1C101.4,113,99.7,113.8,97.9,113.8z M80,50c-0.3,0-1.3,0.1-1.8,1.2l-7.1,17.5c-0.3,0.7-1,1.1-1.6,1.2
	l-18.7,1.3c-0.9,0.1-1.5,0.6-1.7,1.3c-0.3,0.8,0,1.6,0.6,2.1l14.3,12.2c0.6,0.5,0.9,1.2,0.7,2l-4.5,18.4c-0.2,0.6,0,1.2,0.4,1.7
	c0.4,0.5,1,0.8,1.6,0.8c0.4,0,0.8-0.1,1.1-0.3l15.8-10c0.3-0.2,0.7-0.3,1.1-0.3s0.7,0.1,1.1,0.3l15.9,10c0.3,0.2,0.7,0.3,1.1,0.3
	c0.6,0,1.2-0.3,1.6-0.8c0.4-0.5,0.5-1.1,0.4-1.7l-4.5-18.4c-0.2-0.8,0.1-1.5,0.7-2l14.3-12.2c0.8-0.7,0.8-1.5,0.6-2.2
	c-0.1-0.3-0.5-1.2-1.7-1.3l-18.6-1.3c-0.8,0-1.3-0.5-1.6-1.2L82,51.1C81.3,50.1,80.3,50,80,50z"/>
<g>
	<path class="st0" d="M80,157.9c-43,0-78-35-78-78s35-78,78-78s78,35,78,78S123,157.9,80,157.9z M80,4.8C38.6,4.8,4.9,38.5,4.9,79.9
		s33.7,75.1,75.1,75.1s75.1-33.7,75.1-75.1S121.4,4.8,80,4.8z"/>
</g>
</svg>
